<mxfile host="Electron" agent="Mozilla/5.0 (Macintosh; Intel Mac OS X 10_15_7) AppleWebKit/537.36 (KHTML, like Gecko) draw.io/26.0.16 Chrome/132.0.6834.196 Electron/34.2.0 Safari/537.36" version="26.0.16">
  <diagram name="Page-1" id="JzgE6-jNoz6ZgypwW0o8">
    <mxGraphModel dx="1194" dy="2046" grid="1" gridSize="3" guides="1" tooltips="1" connect="1" arrows="1" fold="1" page="1" pageScale="1" pageWidth="827" pageHeight="1169" math="0" shadow="0">
      <root>
        <mxCell id="0" />
        <mxCell id="1" parent="0" />
        <mxCell id="MHl1cd-Qkk1gGBz24KGn-64" value="" style="pointerEvents=1;verticalLabelPosition=bottom;shadow=0;dashed=1;align=center;html=1;verticalAlign=top;shape=mxgraph.electrical.waveforms.sine_wave;fillStyle=dots;strokeColor=default;fontFamily=Helvetica;fontSize=12;fontColor=default;fillColor=#FF0000;" parent="1" vertex="1">
          <mxGeometry x="389.2470000000003" y="-833.2529999999997" width="19.78" height="8.87" as="geometry" />
        </mxCell>
        <mxCell id="MHl1cd-Qkk1gGBz24KGn-65" value="" style="pointerEvents=1;verticalLabelPosition=bottom;shadow=0;dashed=1;align=center;html=1;verticalAlign=top;shape=mxgraph.electrical.waveforms.sine_wave;fillStyle=dots;strokeColor=default;fontFamily=Helvetica;fontSize=12;fontColor=default;fillColor=#FF0000;" parent="1" vertex="1">
          <mxGeometry x="369.5670000000003" y="-832.7729999999997" width="19.74" height="7.9" as="geometry" />
        </mxCell>
        <mxCell id="MHl1cd-Qkk1gGBz24KGn-63" value="" style="pointerEvents=1;verticalLabelPosition=bottom;shadow=0;dashed=1;align=center;html=1;verticalAlign=top;shape=mxgraph.electrical.waveforms.sine_wave;fillStyle=dots;strokeColor=default;fontFamily=Helvetica;fontSize=12;fontColor=default;fillColor=#FF0000;" parent="1" vertex="1">
          <mxGeometry x="349.8870000000003" y="-832.7729999999997" width="19.68" height="7.87" as="geometry" />
        </mxCell>
        <mxCell id="OIkfR_jMZachc5qM4-tc-1" value="Brownies" style="verticalLabelPosition=middle;verticalAlign=middle;html=1;shape=mxgraph.basic.banner;fillStyle=auto;strokeColor=default;align=center;fontFamily=Helvetica;fontSize=16;fontColor=default;fillColor=#FFFFFF;labelPosition=center;fontStyle=1;shadow=1;" parent="1" vertex="1">
          <mxGeometry x="102.35999999999999" y="-1122.04" width="629.92" height="70.87" as="geometry" />
        </mxCell>
        <mxCell id="MHl1cd-Qkk1gGBz24KGn-11" value="" style="endArrow=classic;html=1;rounded=1;fontSize=12;startSize=8;endSize=8;curved=0;" parent="1" edge="1">
          <mxGeometry width="50" height="50" relative="1" as="geometry">
            <mxPoint x="89.79999999999995" y="-972" as="sourcePoint" />
            <mxPoint x="120.79999999999995" y="-921" as="targetPoint" />
            <Array as="points">
              <mxPoint x="120.79999999999995" y="-972" />
            </Array>
          </mxGeometry>
        </mxCell>
        <mxCell id="MHl1cd-Qkk1gGBz24KGn-12" value="" style="group" parent="1" vertex="1" connectable="0">
          <mxGeometry x="93.52399999999989" y="-940.7459999999999" width="67.02" height="70.93000000000006" as="geometry" />
        </mxCell>
        <mxCell id="5F6mdfIocnfPG_2X_Afl-4" value="" style="group" parent="MHl1cd-Qkk1gGBz24KGn-12" vertex="1" connectable="0">
          <mxGeometry width="67.02" height="70.93" as="geometry" />
        </mxCell>
        <mxCell id="MHl1cd-Qkk1gGBz24KGn-2" value="" style="verticalLabelPosition=bottom;verticalAlign=top;html=1;shape=mxgraph.basic.arc;startAngle=0.2547732166712652;endAngle=0.7452267833287348;fillStyle=dots;strokeColor=default;align=center;fontFamily=Helvetica;fontSize=12;fontColor=default;fillColor=#FF0000;" parent="5F6mdfIocnfPG_2X_Afl-4" vertex="1">
          <mxGeometry width="67.02" height="70.93" as="geometry" />
        </mxCell>
        <mxCell id="MHl1cd-Qkk1gGBz24KGn-3" value="" style="verticalLabelPosition=bottom;verticalAlign=top;html=1;shape=mxgraph.basic.arc;startAngle=0.2547732166712652;endAngle=0.7452267833287348;fillStyle=dots;strokeColor=default;align=center;fontFamily=Helvetica;fontSize=12;fontColor=default;fillColor=#FF0000;" parent="5F6mdfIocnfPG_2X_Afl-4" vertex="1">
          <mxGeometry x="3.3299999999999983" y="4" width="60.37" height="62.94" as="geometry" />
        </mxCell>
        <mxCell id="MHl1cd-Qkk1gGBz24KGn-4" value="" style="rounded=1;whiteSpace=wrap;html=1;fillStyle=auto;strokeColor=default;align=center;verticalAlign=middle;fontFamily=Helvetica;fontSize=12;fontColor=default;fillColor=#E6E6E6;rotation=15;" parent="5F6mdfIocnfPG_2X_Afl-4" vertex="1">
          <mxGeometry x="21.343000000000046" y="27.62299999999982" width="14.79" height="10.85" as="geometry" />
        </mxCell>
        <mxCell id="MHl1cd-Qkk1gGBz24KGn-5" value="" style="rounded=1;whiteSpace=wrap;html=1;fillStyle=auto;strokeColor=default;align=center;verticalAlign=middle;fontFamily=Helvetica;fontSize=12;fontColor=default;fillColor=#E6E6E6;rotation=-15;" parent="5F6mdfIocnfPG_2X_Afl-4" vertex="1">
          <mxGeometry x="12.262999999999977" y="43.36299999999994" width="13.86" height="10.86" as="geometry" />
        </mxCell>
        <mxCell id="5F6mdfIocnfPG_2X_Afl-1" value="" style="rounded=1;whiteSpace=wrap;html=1;fillStyle=auto;strokeColor=default;align=center;verticalAlign=middle;fontFamily=Helvetica;fontSize=12;fontColor=default;fillColor=#333333;rotation=15;" parent="5F6mdfIocnfPG_2X_Afl-4" vertex="1">
          <mxGeometry x="32.34" y="47.27" width="14.79" height="9.75" as="geometry" />
        </mxCell>
        <mxCell id="5F6mdfIocnfPG_2X_Afl-2" value="" style="rounded=1;whiteSpace=wrap;html=1;fillStyle=auto;strokeColor=default;align=center;verticalAlign=middle;fontFamily=Helvetica;fontSize=12;fontColor=default;fillColor=#333333;rotation=-15;" parent="5F6mdfIocnfPG_2X_Afl-4" vertex="1">
          <mxGeometry x="40.06999999999998" y="32.5" width="13.86" height="10.86" as="geometry" />
        </mxCell>
        <mxCell id="MHl1cd-Qkk1gGBz24KGn-14" value="cacao amaro&lt;div&gt;15gr&lt;/div&gt;" style="text;strokeColor=none;fillColor=none;html=1;align=left;verticalAlign=middle;whiteSpace=wrap;rounded=0;fontSize=16;" parent="1" vertex="1">
          <mxGeometry x="661.5400000000001" y="-690.94" width="98.43" height="30" as="geometry" />
        </mxCell>
        <mxCell id="MHl1cd-Qkk1gGBz24KGn-16" value="burro&lt;br&gt;200gr" style="text;strokeColor=none;fillColor=none;html=1;align=right;verticalAlign=middle;whiteSpace=wrap;rounded=0;fontSize=16;" parent="1" vertex="1">
          <mxGeometry x="29.996999999999844" y="-987.003" width="59.06" height="30" as="geometry" />
        </mxCell>
        <mxCell id="MHl1cd-Qkk1gGBz24KGn-24" value="" style="group" parent="1" vertex="1" connectable="0">
          <mxGeometry x="541.8670000000002" y="-634.3229999999999" width="95" height="51" as="geometry" />
        </mxCell>
        <mxCell id="MHl1cd-Qkk1gGBz24KGn-25" value="" style="group" parent="MHl1cd-Qkk1gGBz24KGn-24" vertex="1" connectable="0">
          <mxGeometry width="95" height="51" as="geometry" />
        </mxCell>
        <mxCell id="MHl1cd-Qkk1gGBz24KGn-26" value="" style="endArrow=none;html=1;rounded=1;shadow=0;curved=0;strokeWidth=1.1811;" parent="MHl1cd-Qkk1gGBz24KGn-25" edge="1">
          <mxGeometry width="50" height="50" relative="1" as="geometry">
            <mxPoint x="95" as="sourcePoint" />
            <mxPoint as="targetPoint" />
            <Array as="points">
              <mxPoint x="95" y="51" />
              <mxPoint x="48" y="51" />
              <mxPoint y="51" />
            </Array>
          </mxGeometry>
        </mxCell>
        <mxCell id="MHl1cd-Qkk1gGBz24KGn-27" value="" style="endArrow=none;html=1;rounded=1;shadow=0;curved=0;strokeWidth=1.1811;" parent="MHl1cd-Qkk1gGBz24KGn-25" edge="1">
          <mxGeometry width="50" height="50" relative="1" as="geometry">
            <mxPoint x="91" as="sourcePoint" />
            <mxPoint x="4" as="targetPoint" />
            <Array as="points">
              <mxPoint x="91" y="47" />
              <mxPoint x="4" y="47" />
            </Array>
          </mxGeometry>
        </mxCell>
        <mxCell id="MHl1cd-Qkk1gGBz24KGn-28" value="" style="group" parent="MHl1cd-Qkk1gGBz24KGn-24" vertex="1" connectable="0">
          <mxGeometry x="7.757000000000062" y="15.743000000000166" width="77.70599999999999" height="22.744000000000028" as="geometry" />
        </mxCell>
        <mxCell id="MHl1cd-Qkk1gGBz24KGn-29" value="" style="group" parent="MHl1cd-Qkk1gGBz24KGn-28" vertex="1" connectable="0">
          <mxGeometry x="0.12600000000000477" width="77.57999999999998" height="8.870000000000005" as="geometry" />
        </mxCell>
        <mxCell id="MHl1cd-Qkk1gGBz24KGn-30" value="" style="pointerEvents=1;verticalLabelPosition=bottom;shadow=0;dashed=0;align=center;html=1;verticalAlign=top;shape=mxgraph.electrical.waveforms.sine_wave;fillStyle=dots;strokeColor=default;fontFamily=Helvetica;fontSize=12;fontColor=default;fillColor=#FF0000;" parent="MHl1cd-Qkk1gGBz24KGn-29" vertex="1">
          <mxGeometry y="0.47999999999996135" width="19.68" height="7.87" as="geometry" />
        </mxCell>
        <mxCell id="MHl1cd-Qkk1gGBz24KGn-31" value="" style="pointerEvents=1;verticalLabelPosition=bottom;shadow=0;dashed=0;align=center;html=1;verticalAlign=top;shape=mxgraph.electrical.waveforms.sine_wave;fillStyle=dots;strokeColor=default;fontFamily=Helvetica;fontSize=12;fontColor=default;fillColor=#FF0000;" parent="MHl1cd-Qkk1gGBz24KGn-29" vertex="1">
          <mxGeometry x="39.359999999999985" width="19.78" height="8.87" as="geometry" />
        </mxCell>
        <mxCell id="MHl1cd-Qkk1gGBz24KGn-32" value="" style="pointerEvents=1;verticalLabelPosition=bottom;shadow=0;dashed=0;align=center;html=1;verticalAlign=top;shape=mxgraph.electrical.waveforms.sine_wave;fillStyle=dots;strokeColor=default;fontFamily=Helvetica;fontSize=12;fontColor=default;fillColor=#FF0000;" parent="MHl1cd-Qkk1gGBz24KGn-29" vertex="1">
          <mxGeometry x="19.679999999999993" y="0.47999999999996135" width="19.74" height="7.9" as="geometry" />
        </mxCell>
        <mxCell id="MHl1cd-Qkk1gGBz24KGn-33" value="" style="pointerEvents=1;verticalLabelPosition=bottom;shadow=0;dashed=0;align=center;html=1;verticalAlign=top;shape=mxgraph.electrical.waveforms.sine_wave;fillStyle=dots;strokeColor=default;fontFamily=Helvetica;fontSize=12;fontColor=default;fillColor=#FF0000;" parent="MHl1cd-Qkk1gGBz24KGn-29" vertex="1">
          <mxGeometry x="59.04999999999998" y="1" width="18.53" height="6.9" as="geometry" />
        </mxCell>
        <mxCell id="MHl1cd-Qkk1gGBz24KGn-34" value="" style="group" parent="MHl1cd-Qkk1gGBz24KGn-28" vertex="1" connectable="0">
          <mxGeometry x="0.06300000000000239" y="6.937000000000012" width="77.57999999999998" height="8.870000000000005" as="geometry" />
        </mxCell>
        <mxCell id="MHl1cd-Qkk1gGBz24KGn-35" value="" style="pointerEvents=1;verticalLabelPosition=bottom;shadow=0;dashed=0;align=center;html=1;verticalAlign=top;shape=mxgraph.electrical.waveforms.sine_wave;fillStyle=dots;strokeColor=default;fontFamily=Helvetica;fontSize=12;fontColor=default;fillColor=#FF0000;" parent="MHl1cd-Qkk1gGBz24KGn-34" vertex="1">
          <mxGeometry y="0.47999999999996135" width="19.68" height="7.87" as="geometry" />
        </mxCell>
        <mxCell id="MHl1cd-Qkk1gGBz24KGn-36" value="" style="pointerEvents=1;verticalLabelPosition=bottom;shadow=0;dashed=0;align=center;html=1;verticalAlign=top;shape=mxgraph.electrical.waveforms.sine_wave;fillStyle=dots;strokeColor=default;fontFamily=Helvetica;fontSize=12;fontColor=default;fillColor=#FF0000;" parent="MHl1cd-Qkk1gGBz24KGn-34" vertex="1">
          <mxGeometry x="39.359999999999985" width="19.78" height="8.87" as="geometry" />
        </mxCell>
        <mxCell id="MHl1cd-Qkk1gGBz24KGn-37" value="" style="pointerEvents=1;verticalLabelPosition=bottom;shadow=0;dashed=0;align=center;html=1;verticalAlign=top;shape=mxgraph.electrical.waveforms.sine_wave;fillStyle=dots;strokeColor=default;fontFamily=Helvetica;fontSize=12;fontColor=default;fillColor=#FF0000;" parent="MHl1cd-Qkk1gGBz24KGn-34" vertex="1">
          <mxGeometry x="19.679999999999993" y="0.47999999999996135" width="19.74" height="7.9" as="geometry" />
        </mxCell>
        <mxCell id="MHl1cd-Qkk1gGBz24KGn-38" value="" style="pointerEvents=1;verticalLabelPosition=bottom;shadow=0;dashed=0;align=center;html=1;verticalAlign=top;shape=mxgraph.electrical.waveforms.sine_wave;fillStyle=dots;strokeColor=default;fontFamily=Helvetica;fontSize=12;fontColor=default;fillColor=#FF0000;" parent="MHl1cd-Qkk1gGBz24KGn-34" vertex="1">
          <mxGeometry x="59.04999999999998" y="1" width="18.53" height="6.9" as="geometry" />
        </mxCell>
        <mxCell id="MHl1cd-Qkk1gGBz24KGn-39" value="" style="group" parent="MHl1cd-Qkk1gGBz24KGn-28" vertex="1" connectable="0">
          <mxGeometry y="13.874000000000024" width="77.57999999999998" height="8.870000000000005" as="geometry" />
        </mxCell>
        <mxCell id="MHl1cd-Qkk1gGBz24KGn-40" value="" style="pointerEvents=1;verticalLabelPosition=bottom;shadow=0;dashed=0;align=center;html=1;verticalAlign=top;shape=mxgraph.electrical.waveforms.sine_wave;fillStyle=dots;strokeColor=default;fontFamily=Helvetica;fontSize=12;fontColor=default;fillColor=#FF0000;" parent="MHl1cd-Qkk1gGBz24KGn-39" vertex="1">
          <mxGeometry y="0.47999999999996135" width="19.68" height="7.87" as="geometry" />
        </mxCell>
        <mxCell id="MHl1cd-Qkk1gGBz24KGn-41" value="" style="pointerEvents=1;verticalLabelPosition=bottom;shadow=0;dashed=0;align=center;html=1;verticalAlign=top;shape=mxgraph.electrical.waveforms.sine_wave;fillStyle=dots;strokeColor=default;fontFamily=Helvetica;fontSize=12;fontColor=default;fillColor=#FF0000;" parent="MHl1cd-Qkk1gGBz24KGn-39" vertex="1">
          <mxGeometry x="39.359999999999985" width="19.78" height="8.87" as="geometry" />
        </mxCell>
        <mxCell id="MHl1cd-Qkk1gGBz24KGn-42" value="" style="pointerEvents=1;verticalLabelPosition=bottom;shadow=0;dashed=0;align=center;html=1;verticalAlign=top;shape=mxgraph.electrical.waveforms.sine_wave;fillStyle=dots;strokeColor=default;fontFamily=Helvetica;fontSize=12;fontColor=default;fillColor=#FF0000;" parent="MHl1cd-Qkk1gGBz24KGn-39" vertex="1">
          <mxGeometry x="19.679999999999993" y="0.47999999999996135" width="19.74" height="7.9" as="geometry" />
        </mxCell>
        <mxCell id="MHl1cd-Qkk1gGBz24KGn-43" value="" style="pointerEvents=1;verticalLabelPosition=bottom;shadow=0;dashed=0;align=center;html=1;verticalAlign=top;shape=mxgraph.electrical.waveforms.sine_wave;fillStyle=dots;strokeColor=default;fontFamily=Helvetica;fontSize=12;fontColor=default;fillColor=#FF0000;" parent="MHl1cd-Qkk1gGBz24KGn-39" vertex="1">
          <mxGeometry x="59.04999999999998" y="1" width="18.53" height="6.9" as="geometry" />
        </mxCell>
        <mxCell id="MHl1cd-Qkk1gGBz24KGn-45" value="" style="endArrow=classic;html=1;rounded=1;fontSize=12;startSize=8;endSize=8;curved=0;" parent="1" edge="1">
          <mxGeometry width="50" height="50" relative="1" as="geometry">
            <mxPoint x="660.1" y="-675.5" as="sourcePoint" />
            <mxPoint x="620.607" y="-624.2529999999999" as="targetPoint" />
            <Array as="points">
              <mxPoint x="620.607" y="-675.2529999999999" />
            </Array>
          </mxGeometry>
        </mxCell>
        <mxCell id="MHl1cd-Qkk1gGBz24KGn-49" value="" style="endArrow=classic;html=1;rounded=1;fontSize=12;startSize=8;endSize=8;curved=0;" parent="1" edge="1">
          <mxGeometry width="50" height="50" relative="1" as="geometry">
            <mxPoint x="660.1" y="-734.5" as="sourcePoint" />
            <mxPoint x="597.0409999999999" y="-624.4390000000001" as="targetPoint" />
            <Array as="points">
              <mxPoint x="597.0999999999999" y="-734.5" />
            </Array>
          </mxGeometry>
        </mxCell>
        <mxCell id="MHl1cd-Qkk1gGBz24KGn-50" value="farina 00&lt;div&gt;135gr&lt;/div&gt;" style="text;strokeColor=none;fillColor=none;html=1;align=left;verticalAlign=middle;whiteSpace=wrap;rounded=0;fontSize=16;" parent="1" vertex="1">
          <mxGeometry x="661.54" y="-750" width="121.46" height="30" as="geometry" />
        </mxCell>
        <mxCell id="MHl1cd-Qkk1gGBz24KGn-52" value="" style="endArrow=classic;html=1;rounded=1;fontSize=12;startSize=8;endSize=8;curved=0;" parent="1" edge="1">
          <mxGeometry width="50" height="50" relative="1" as="geometry">
            <mxPoint x="516.9200000000001" y="-729.24" as="sourcePoint" />
            <mxPoint x="576.421" y="-624.009" as="targetPoint" />
            <Array as="points">
              <mxPoint x="576.9200000000001" y="-729.24" />
            </Array>
          </mxGeometry>
        </mxCell>
        <mxCell id="MHl1cd-Qkk1gGBz24KGn-53" value="" style="endArrow=classic;html=1;rounded=1;fontSize=12;startSize=8;endSize=8;curved=0;" parent="1" edge="1">
          <mxGeometry width="50" height="50" relative="1" as="geometry">
            <mxPoint x="509.9200000000001" y="-677.24" as="sourcePoint" />
            <mxPoint x="557.608" y="-624.012" as="targetPoint" />
            <Array as="points">
              <mxPoint x="557.9200000000001" y="-677.24" />
            </Array>
          </mxGeometry>
        </mxCell>
        <mxCell id="MHl1cd-Qkk1gGBz24KGn-55" value="sale" style="text;strokeColor=none;fillColor=none;html=1;align=right;verticalAlign=middle;whiteSpace=wrap;rounded=0;fontSize=16;" parent="1" vertex="1">
          <mxGeometry x="408.00400000000013" y="-690.9359999999999" width="98.43" height="30" as="geometry" />
        </mxCell>
        <mxCell id="MHl1cd-Qkk1gGBz24KGn-56" value="1/2 cucchiaino&lt;div&gt;lievito&lt;/div&gt;" style="text;strokeColor=none;fillColor=none;html=1;align=right;verticalAlign=middle;whiteSpace=wrap;rounded=0;fontSize=16;" parent="1" vertex="1">
          <mxGeometry x="384" y="-744.57" width="129.43" height="30" as="geometry" />
        </mxCell>
        <mxCell id="MHl1cd-Qkk1gGBz24KGn-77" value="" style="group" parent="1" vertex="1" connectable="0">
          <mxGeometry x="213.00400000000013" y="-701.9959999999999" width="95" height="51" as="geometry" />
        </mxCell>
        <mxCell id="MHl1cd-Qkk1gGBz24KGn-78" value="" style="group" parent="MHl1cd-Qkk1gGBz24KGn-77" vertex="1" connectable="0">
          <mxGeometry width="95" height="51" as="geometry" />
        </mxCell>
        <mxCell id="MHl1cd-Qkk1gGBz24KGn-79" value="" style="endArrow=none;html=1;rounded=1;shadow=0;curved=0;strokeWidth=1.1811;" parent="MHl1cd-Qkk1gGBz24KGn-78" edge="1">
          <mxGeometry width="50" height="50" relative="1" as="geometry">
            <mxPoint x="95" as="sourcePoint" />
            <mxPoint as="targetPoint" />
            <Array as="points">
              <mxPoint x="95" y="51" />
              <mxPoint x="48" y="51" />
              <mxPoint y="51" />
            </Array>
          </mxGeometry>
        </mxCell>
        <mxCell id="MHl1cd-Qkk1gGBz24KGn-80" value="" style="endArrow=none;html=1;rounded=1;shadow=0;curved=0;strokeWidth=1.1811;" parent="MHl1cd-Qkk1gGBz24KGn-78" edge="1">
          <mxGeometry width="50" height="50" relative="1" as="geometry">
            <mxPoint x="91" as="sourcePoint" />
            <mxPoint x="4" as="targetPoint" />
            <Array as="points">
              <mxPoint x="91" y="47" />
              <mxPoint x="4" y="47" />
            </Array>
          </mxGeometry>
        </mxCell>
        <mxCell id="MHl1cd-Qkk1gGBz24KGn-81" value="" style="group" parent="MHl1cd-Qkk1gGBz24KGn-77" vertex="1" connectable="0">
          <mxGeometry x="7.757000000000062" y="15.743000000000166" width="77.70599999999999" height="22.744000000000028" as="geometry" />
        </mxCell>
        <mxCell id="MHl1cd-Qkk1gGBz24KGn-82" value="" style="group" parent="MHl1cd-Qkk1gGBz24KGn-81" vertex="1" connectable="0">
          <mxGeometry x="0.12600000000000477" width="77.57999999999998" height="8.870000000000005" as="geometry" />
        </mxCell>
        <mxCell id="MHl1cd-Qkk1gGBz24KGn-83" value="" style="pointerEvents=1;verticalLabelPosition=bottom;shadow=0;dashed=0;align=center;html=1;verticalAlign=top;shape=mxgraph.electrical.waveforms.sine_wave;fillStyle=dots;strokeColor=default;fontFamily=Helvetica;fontSize=12;fontColor=default;fillColor=#FF0000;" parent="MHl1cd-Qkk1gGBz24KGn-82" vertex="1">
          <mxGeometry y="0.47999999999996135" width="19.68" height="7.87" as="geometry" />
        </mxCell>
        <mxCell id="MHl1cd-Qkk1gGBz24KGn-84" value="" style="pointerEvents=1;verticalLabelPosition=bottom;shadow=0;dashed=0;align=center;html=1;verticalAlign=top;shape=mxgraph.electrical.waveforms.sine_wave;fillStyle=dots;strokeColor=default;fontFamily=Helvetica;fontSize=12;fontColor=default;fillColor=#FF0000;" parent="MHl1cd-Qkk1gGBz24KGn-82" vertex="1">
          <mxGeometry x="39.359999999999985" width="19.78" height="8.87" as="geometry" />
        </mxCell>
        <mxCell id="MHl1cd-Qkk1gGBz24KGn-85" value="" style="pointerEvents=1;verticalLabelPosition=bottom;shadow=0;dashed=0;align=center;html=1;verticalAlign=top;shape=mxgraph.electrical.waveforms.sine_wave;fillStyle=dots;strokeColor=default;fontFamily=Helvetica;fontSize=12;fontColor=default;fillColor=#FF0000;" parent="MHl1cd-Qkk1gGBz24KGn-82" vertex="1">
          <mxGeometry x="19.679999999999993" y="0.47999999999996135" width="19.74" height="7.9" as="geometry" />
        </mxCell>
        <mxCell id="MHl1cd-Qkk1gGBz24KGn-86" value="" style="pointerEvents=1;verticalLabelPosition=bottom;shadow=0;dashed=0;align=center;html=1;verticalAlign=top;shape=mxgraph.electrical.waveforms.sine_wave;fillStyle=dots;strokeColor=default;fontFamily=Helvetica;fontSize=12;fontColor=default;fillColor=#FF0000;" parent="MHl1cd-Qkk1gGBz24KGn-82" vertex="1">
          <mxGeometry x="59.04999999999998" y="1" width="18.53" height="6.9" as="geometry" />
        </mxCell>
        <mxCell id="MHl1cd-Qkk1gGBz24KGn-87" value="" style="group" parent="MHl1cd-Qkk1gGBz24KGn-81" vertex="1" connectable="0">
          <mxGeometry x="0.06300000000000239" y="6.937000000000012" width="77.57999999999998" height="8.870000000000005" as="geometry" />
        </mxCell>
        <mxCell id="MHl1cd-Qkk1gGBz24KGn-88" value="" style="pointerEvents=1;verticalLabelPosition=bottom;shadow=0;dashed=0;align=center;html=1;verticalAlign=top;shape=mxgraph.electrical.waveforms.sine_wave;fillStyle=dots;strokeColor=default;fontFamily=Helvetica;fontSize=12;fontColor=default;fillColor=#FF0000;" parent="MHl1cd-Qkk1gGBz24KGn-87" vertex="1">
          <mxGeometry y="0.47999999999996135" width="19.68" height="7.87" as="geometry" />
        </mxCell>
        <mxCell id="MHl1cd-Qkk1gGBz24KGn-89" value="" style="pointerEvents=1;verticalLabelPosition=bottom;shadow=0;dashed=0;align=center;html=1;verticalAlign=top;shape=mxgraph.electrical.waveforms.sine_wave;fillStyle=dots;strokeColor=default;fontFamily=Helvetica;fontSize=12;fontColor=default;fillColor=#FF0000;" parent="MHl1cd-Qkk1gGBz24KGn-87" vertex="1">
          <mxGeometry x="39.359999999999985" width="19.78" height="8.87" as="geometry" />
        </mxCell>
        <mxCell id="MHl1cd-Qkk1gGBz24KGn-90" value="" style="pointerEvents=1;verticalLabelPosition=bottom;shadow=0;dashed=0;align=center;html=1;verticalAlign=top;shape=mxgraph.electrical.waveforms.sine_wave;fillStyle=dots;strokeColor=default;fontFamily=Helvetica;fontSize=12;fontColor=default;fillColor=#FF0000;" parent="MHl1cd-Qkk1gGBz24KGn-87" vertex="1">
          <mxGeometry x="19.679999999999993" y="0.47999999999996135" width="19.74" height="7.9" as="geometry" />
        </mxCell>
        <mxCell id="MHl1cd-Qkk1gGBz24KGn-91" value="" style="pointerEvents=1;verticalLabelPosition=bottom;shadow=0;dashed=0;align=center;html=1;verticalAlign=top;shape=mxgraph.electrical.waveforms.sine_wave;fillStyle=dots;strokeColor=default;fontFamily=Helvetica;fontSize=12;fontColor=default;fillColor=#FF0000;" parent="MHl1cd-Qkk1gGBz24KGn-87" vertex="1">
          <mxGeometry x="59.04999999999998" y="1" width="18.53" height="6.9" as="geometry" />
        </mxCell>
        <mxCell id="MHl1cd-Qkk1gGBz24KGn-92" value="" style="group" parent="MHl1cd-Qkk1gGBz24KGn-81" vertex="1" connectable="0">
          <mxGeometry y="13.874000000000024" width="77.57999999999998" height="8.870000000000005" as="geometry" />
        </mxCell>
        <mxCell id="MHl1cd-Qkk1gGBz24KGn-93" value="" style="pointerEvents=1;verticalLabelPosition=bottom;shadow=0;dashed=0;align=center;html=1;verticalAlign=top;shape=mxgraph.electrical.waveforms.sine_wave;fillStyle=dots;strokeColor=default;fontFamily=Helvetica;fontSize=12;fontColor=default;fillColor=#FF0000;" parent="MHl1cd-Qkk1gGBz24KGn-92" vertex="1">
          <mxGeometry y="0.47999999999996135" width="19.68" height="7.87" as="geometry" />
        </mxCell>
        <mxCell id="MHl1cd-Qkk1gGBz24KGn-94" value="" style="pointerEvents=1;verticalLabelPosition=bottom;shadow=0;dashed=0;align=center;html=1;verticalAlign=top;shape=mxgraph.electrical.waveforms.sine_wave;fillStyle=dots;strokeColor=default;fontFamily=Helvetica;fontSize=12;fontColor=default;fillColor=#FF0000;" parent="MHl1cd-Qkk1gGBz24KGn-92" vertex="1">
          <mxGeometry x="39.359999999999985" width="19.78" height="8.87" as="geometry" />
        </mxCell>
        <mxCell id="MHl1cd-Qkk1gGBz24KGn-95" value="" style="pointerEvents=1;verticalLabelPosition=bottom;shadow=0;dashed=0;align=center;html=1;verticalAlign=top;shape=mxgraph.electrical.waveforms.sine_wave;fillStyle=dots;strokeColor=default;fontFamily=Helvetica;fontSize=12;fontColor=default;fillColor=#FF0000;" parent="MHl1cd-Qkk1gGBz24KGn-92" vertex="1">
          <mxGeometry x="19.679999999999993" y="0.47999999999996135" width="19.74" height="7.9" as="geometry" />
        </mxCell>
        <mxCell id="MHl1cd-Qkk1gGBz24KGn-96" value="" style="pointerEvents=1;verticalLabelPosition=bottom;shadow=0;dashed=0;align=center;html=1;verticalAlign=top;shape=mxgraph.electrical.waveforms.sine_wave;fillStyle=dots;strokeColor=default;fontFamily=Helvetica;fontSize=12;fontColor=default;fillColor=#FF0000;" parent="MHl1cd-Qkk1gGBz24KGn-92" vertex="1">
          <mxGeometry x="59.04999999999998" y="1" width="18.53" height="6.9" as="geometry" />
        </mxCell>
        <mxCell id="MHl1cd-Qkk1gGBz24KGn-104" value="mischiare &#xa;uniformemente" style="shape=image;verticalLabelPosition=middle;labelBackgroundColor=default;verticalAlign=middle;aspect=fixed;imageAspect=0;image=data:image/svg+xml,PHN2ZyB4bWxuczp4bGluaz0iaHR0cDovL3d3dy53My5vcmcvMTk5OS94bGluayIgeG1sbnM9Imh0dHA6Ly93d3cudzMub3JnLzIwMDAvc3ZnIiB4bWw6c3BhY2U9InByZXNlcnZlIiBzdHlsZT0iZW5hYmxlLWJhY2tncm91bmQ6bmV3IDAgMCAxMDAwIDEwMDA7IiB2aWV3Qm94PSIwIDAgMTAwMCAxMjUwIiB5PSIwcHgiIHg9IjBweCIgdmVyc2lvbj0iMS4xIj48Zz48cGF0aCBkPSJNNTQ0LjUwNjc3NDksODA0LjM0NDQ4MjRjMC44NTUyMjQ2LDQxLjQyNDU2MDUsMi44OTI1NzgxLDg0LjAxMzI0NDYtMi4xNjMyNjksMTI1LjI0MDQxNzUgICBjLTMuNTA5MjE2MywyOC42MTU1Mzk2LTIxLjUxMjgxNzQsNzAuMTgxMDkxMy01OC4wMzMyNjQyLDU2LjIwNDI4NDcgICBjLTM0LjYxMTE3NTUtMTMuMjQ2MjE1OC0zMi41NTgwNzUtNjQuNTUxNTc0Ny0zMy4zODA2NzYzLTk0LjMyNjQ3NzEgICBjLTEuMTk2OTYwNC00My4zMjQwOTY3LDAuMzUyODQ0Mi04Ni42ODA2NjQxLDIuMDE1ODY5MS0xMjkuOTcxNjE4NyAgIGMxLjU5MjgwNC00MS40NjI4Mjk2LDQuNjY2NzQ4LTgyLjgwNzY3ODIsOC41NjY1ODk0LTEyNC4xMTM4MzA2YzEuNzkwMTAwMS0xOC45NjAyMDUxLDIuNDc2NTMyLTQxLjE1Mzc0NzYsMTAuODgyMDE5LTU4LjUyOTExMzggICBjNy40OTU5NDEyLTE1LjQ5NTIzOTMsOC42NTk3NTk1LTM1LjAwMzA1MTgtMC40OTAxNDI4LTQ5Ljg5ODc0MjcgICBjLTQyLjAzNzEzOTktNjguNDM0NzIyOS04Ni4yMzM1MjA1LTEzNC45NjUwODc5LTExNy4xODczMTY5LTIwOS40Nzc4MTM3ICAgYy0xNC45OTg1MzUyLTM2LjEwNDg1ODQtMjguNDM3MzQ3NC03My45NDk2MTU1LTMwLjA0ODIxNzgtMTEzLjM3NDg0NzQgICBjLTEuMTY4ODIzMi0yOC42MDY0MzAxLDMuNTU5ODQ1LTU3LjUwODQ1MzQsMTQuMTkyMDQ3MS04NC4xMTI2Nzg1ICAgYzIzLjA5Mjg2NS01Ny43ODM1NjkzLDcyLjQ5MjQ5MjctOTcuMDYyMjEwMSwxMzMuNTY2MDA5NS0xMDcuODQ2ODI0NiAgIEM1NDAuMDk1MjE0OCwyLjE4ODAwNzgsNjA2LjY2MzI2OSwzMC4xMDc3NDIzLDY0NC4zMDYyNzQ0LDg4LjE4NTA0MzMgICBjMTguNTU0MDc3MSwyOC42MjYwNjgxLDI5LjA3MjAyMTUsNjMuNDU1MDQ3NiwzMC45MzM1MzI3LDk3LjQ0NTM1ODMgICBjMi4xNDgwMTAzLDM5LjIyMTA2OTMtOS4wMjQzNTMsNzcuMzAwNDc2MS0yMy4wMjcyMjE3LDExMy41MDE2NDc5ICAgYy0yOC42MjU3OTM1LDc0LjAwNjA0MjUtNjguOTMxODIzNywxNDMuNjg0MzI2Mi0xMTIuODgyMjAyMSwyMDkuNTU5MzU2NyAgIGMtMTAuNzU5MDMzMiwxNi4xMjYyODE3LTIxLjcyMTEzMDQsMzEuMjExMDU5Ni0xOC45OTU5NzE3LDUxLjY1MzA3NjIgICBjMS4yMDg2NzkyLDkuMDY3MjYwNyw1LjQ0MTUyODMsMTYuODY5ODczLDguMTQwMDc1NywyNS40NzU4OTExYzMuMDA5NjQzNiw5LjU5ODI2NjYsMy45NTUyMDAyLDE5LjY0OTM1Myw0Ljg5ODYyMDYsMjkuNjE2MzMzICAgYzMuOTgxNTY3NCw0Mi4wNjY0MDYyLDYuOTcwODg2Miw4NC4yMzU3Nzg4LDguOTYxMzAzNywxMjYuNDQyOTkzMiAgIEM1NDMuMzE1OTE4LDc2Mi42OTEzNDUyLDU0NC4wNDU0MTAyLDc4My41MTQ4OTI2LDU0NC41MDY3NzQ5LDgwNC4zNDQ0ODI0eiBNNDYzLjIzMjgxODYsNDkwLjY4NjEyNjcgICBjMi4wNzQwMzU2LTYuODc2MTU5Ny02LjY3MTUwODgtMTkuOTA0NTQxLTkuMjI0Mzk1OC0yNi4xOTA5NDg1Yy0zLjgwMTE0NzUtOS4zNjAxNjg1LTcuNTM2MjU0OS0xOC43NDcyODM5LTExLjE3NDEzMzMtMjguMTcyMTE5MSAgIGMtNy4yNTk5MTgyLTE4LjgwODQ3MTctMTQuMTM0MTU1My0zNy43NzIxNTU4LTIwLjM1MTM0ODktNTYuOTUyMjcwNSAgIGMtMTIuODQ2NTU3Ni0zOS42MzE3NDQ0LTIyLjgzNjQ4NjgtODAuMjI1NzY5LTI3LjkwMjE2MDYtMTIxLjYxOTc1MSAgIGMtOC4wMTg3NjgzLTY1LjUyNTIyMjgtNi43NzY3MDI5LTE0Ny40OTkyNTIzLDQxLjc5NzY2ODUtMTk4LjQ1NzMyMTIgICBjMjEuMDk3MjktMjIuMTMyNjE0MSw0OS41NDM3MDEyLTM1Ljk2MDg5OTQsODAuNTQwODAyLTMxLjIyMDQzMDQgICBjMzAuNjM2NDc0Niw0LjY4NTMxOTksNTUuMzc5Njk5NywyMy44OTk0ODQ2LDcyLjUxNTY4Niw0OS4wMjcxMTQ5ICAgYzQwLjkxNjg3MDEsNTkuOTk5Mzg5NiwzMy45Nzg2Mzc3LDEzOC4xOTM1MjcyLDE4LjkwNTc2MTcsMjA1LjQ5ODgwOTggICBjLTguMTU0NjAyMSwzNi40MTI3NTAyLTE4Ljg0OTM2NTIsNzIuMTg4MzI0LTMxLjYzNzkzOTUsMTA3LjIzNjkwOCAgIGMtNi4zNTcwNTU3LDE3LjQyMjI3MTctMTMuMjAwNTAwNSwzNC42NjQ5NzgtMjAuNDEyMzUzNSw1MS43NTAzOTY3Yy0zLjcyMDUyLDguODE0MjctNy41Mzk5NzgsMTcuNTg2NTE3My0xMS40NDE5NTU2LDI2LjMyMTk2MDQgICBjLTIuNzA5MTA2NCw2LjA2NTA2MzUtOC44MTk2NDExLDE0LjU1MTU0NDItOC4yODYzMTU5LDIxLjQ1OTk5MTUgICBjMjYuMTk5MzQwOC00MC4wODAyNjEyLDUwLjgyMjQ0ODctODEuMTk4NTQ3NCw3Mi4zMTYwNC0xMjQuMDE4MDY2NCAgIGMyMC44MDgyMjc1LTQxLjQ1NDI1NDIsNDEuMjU1Nzk4My04NS42NTYwOTc0LDUwLjA4OTQ3NzUtMTMxLjQ1NTMyMjMgICBjMTQuNTM1Mjc4My03NS4zNTk0NjY2LTE3LjI1NzE0MTEtMTU4LjUwMTEyOTItODcuNTA1NjE1Mi0xOTQuNDgxNDE0OCAgIEM1MTIuNjUxNTUwMyw5LjI5MTc0NzEsNDMzLjcyMzA4MzUsMjQuNjE0OTA2MywzODcuMjc1MDU0OSw3MC42MDc3NTc2ICAgYy01MC42MTAyOTA1LDUwLjExNDI1NzgtNTkuNDA2OTUxOSwxMjUuODgyODQzLTM5LjcxMDYzMjMsMTkxLjcyOTAwMzkgICBDMzcyLjE0NTE0MTYsMzQ0LjUxMTg0MDgsNDE3LjUyMTk0MjEsNDE4Ljg2NjgyMTMsNDYzLjIzMjgxODYsNDkwLjY4NjEyNjd6IE00NzguMjEyNTI0NCw0ODkuMDkzMTcwMiAgIGMwLjIzMTc4MS0wLjE2MzkwOTksMC40NjM1NjItMC4zMjc3NTg4LDAuNjk1MzczNS0wLjQ5MTY2ODdjLTExLjg2MzczOS03MC4zMzAyMzA3LTI0Ljc2MjYzNDMtMTQwLjQzMzgwNzQtMjkuODIxNzQ2OC0yMTEuNjc3MjQ2MSAgIGMtMi4yMjEwNjkzLTMxLjI3NzU1NzQtMy4yMjAxODQzLTYyLjY5NTExNDEtMi40ODUyNi05NC4wNDg1ODRjMC43MDAxOTUzLTI5Ljg3MjIzODIsMi4zODgxNTMxLTYxLjY1ODA4MTEsMTIuMDY3MTY5Mi05MC4xNzgyNzYxICAgYzcuNDI2ODc5OS0yMS44ODQwMjU2LDI0LjY5NTYxNzctNDUuODUzMjUyNCw1MC45MjA1MzIyLTQwLjcxOTMxNDYgICBjMjYuODk1NDE2Myw1LjI2NTE5MzksMzcuNDU3NDg5LDM1Ljk0ODMzMzcsNDIuNzU2NDM5Miw1OS4yNTU3MjJjNy4wMTY5Njc4LDMwLjg2NDE1ODYsNy40MTgyNzM5LDYzLjA4NjI1MDMsNy4xMTA1OTU3LDk0LjU5NTYwMzkgICBjLTAuMzA4ODk4OSwzMS42Mjk5NDM4LTIuMzU4MDkzMyw2My4yMjc5MzU4LTUuNzMzMzk4NCw5NC42NzQ1MyAgIGMtNi43NzQzNTMsNjMuMTEzNDMzOC0xOS4wNDc2Njg1LDEyNS4zMTE2NzYtMzIuODg1NDM3LDE4Ny4yMDI2NjcyICAgYzEwLjQ4MTg3MjYtMTYuNzEyMDY2NywxNy41Mjg1NjQ1LTM2LjI1NTM0MDYsMjUuMTYwNTgzNS01NC4zOTA4OTk3ICAgYzcuNTI5NDgtMTcuODkxNzU0MiwxNC42NDI1NzgxLTM1Ljk2MTAyOTEsMjEuMTg4MTEwNC01NC4yMzY1NDE3ICAgYzEzLjA5OTY3MDQtMzYuNTc0Njc2NSwyMy45MDA4Nzg5LTc0LjAwMzQ0ODUsMzEuMjUwMjQ0MS0xMTIuMTY5NzM4OCAgIGMxMi4wNzc3NTg4LTYyLjcyMjE4MzIsMTcuNTcxNzc3My0xMzcuMTcwNTkzMy0yNS43Mzg0MDMzLTE4OS45MzcxMTg1ICAgYy0xOC44NzQ4MTY5LTIyLjk5NTgwNzYtNDUuNzI5MzA5MS0zOS42NDQ2NzYyLTc2LjQyNzQyOTItMzYuMTIxNzYxMyAgIGMtMjguNTc4MjE2NiwzLjI3OTYxMzUtNTEuNzIzODE1OSwyNC43MjE2OTExLTY2LjQwOTI3MTIsNDguMjU3MDc2MyAgIGMtMTYuMDMxNTg1NywyNS42OTI4NjM1LTIyLjA5NzYyNTcsNTYuMjQ0ODQyNS0yNC43Mzc0ODc4LDg2LjAyNDg1NjYgICBjLTMuMjE3ODY1LDM2LjMwMDUwNjYsMC4wMzA4MjI4LDcyLjgzNDgwODMsNi4zNjAwMTU5LDEwOC42MjgwMjEyICAgQzQyNC4xNTkzNjI4LDM1NS40NDc1NzA4LDQ1MC44Nzk3MzAyLDQyMi4wMjM5ODY4LDQ3OC4yMTI1MjQ0LDQ4OS4wOTMxNzAyeiBNNTA3LjM5NDI4NzEsNDg4LjAwOTU4MjUgICBjMC40MTMwODU5LTAuODAwNjU5MiwwLjk5NDA0OTEtMS41MTk4MzY0LDEuMTcwNTkzMy0yLjMyNzM2MjFjOS4zOTY4NTA2LTQyLjk5NDI5MzIsMTguNTE4MjQ5NS04Ni4wNDc3NiwyNC45ODE2ODk1LTEyOS42MDE2ODQ2ICAgYzUuOTM2NzA2NS00MC4wMDQ0MjUsMTAuNjA5MzE0LTgwLjE1Njc5OTMsMTIuMjM5NTAyLTEyMC41OTc4ODUxICAgYzEuNjE0MTM1Ny00MC4wMzk4NDA3LDIuMTczMDk1Ny04MC4wNzQwNTA5LTUuNzMyMjk5OC0xMTkuNjM2NzU2OSAgIGMtMy4wNDM3MDEyLTE1LjIzMjYxMjYtNy40NDI0NDM4LTMwLjEwODYzNDktMTguMzk3MzM4OS00MS45NDcwMDYyYy0zLjc1MjE5NzMtNC4wNTQ3MDI4LTcuNzA2NDIwOS03Ljk4MTQyMjQtMTQuMjYyMTQ2LTguNjIxOTAyNSAgIEM1MDcuMzk0Mjg3MSwyMDYuMzg2MDMyMSw1MDcuMzk0Mjg3MSwzNDcuMTYwNDYxNCw1MDcuMzk0Mjg3MSw0ODguMDA5NTgyNXogTTQ5My4yMDAzMTc0LDQ5My4xNTIwMzg2ICAgYzAuMzQzMjYxNy0wLjExNzM0MDEsMC42ODY0MzE5LTAuMjM0NjQ5NywxLjAyOTYwMjEtMC4zNTE5ODk3YzAtMTQyLjA1NDc0ODUsMC0yODQuMTA5NDk3MSwwLTQyNi42MDg0OSAgIGMtMTEuNTA0MDg5NCwyLjE3NzA3MDYtMTkuMDQ0NDMzNiwxOS40NjQ1MDgxLTIyLjU3NTgzNjIsMjkuMDc0MDczOCAgIGMtNS4zMDMwMzk2LDE0LjQzMDM4OTQtNy45NTcwMzEyLDI5Ljg1MTA1OS05LjQ5Njg4NzIsNDUuMDk5MzM0NyAgIEM0NTAuMjcxOTQyMSwyNTguMDU3OTUyOSw0NzEuMTY5NjQ3MiwzNzcuODg1ODAzMiw0OTMuMjAwMzE3NCw0OTMuMTUyMDM4NnogTTQ5Mi40MTgwMjk4LDU2NS43MjU5NTIxICAgYy0xMS41MDQxODA5LDguNDk4NTk2Mi0xNS4wMTA4NjQzLDIzLjUzNTU4MzUtMTYuNzA2MzU5OSwzNy4wMDY3NzQ5ICAgYy0yLjA0MjMyNzksMTYuMjI2ODA2Ni0yLjYzNTY1MDYsMzIuNjk1OTIyOS0zLjA2ODgxNzEsNDkuMDMxMTg5ICAgYy0wLjg3NTM5NjcsMzMuMDEyMzkwMS0yLjE3NzI0NjEsNjYuMDYyOTI3Mi0xLjg3NjE1OTcsOTkuMDgzMTkwOSAgIGMwLjYwMTgwNjYsNjUuOTkzNDY5MiwyLjQ0OTc5ODYsMTMxLjk0Nzk5OCw0Ljk0MDMwNzYsMTk3Ljg5MTk2NzggICBDNDc5LjczODg2MTEsODIxLjQ1MzU1MjIsNDg2Ljg4NDg1NzIsNjk0LjI2NDQ2NTMsNDkyLjQxODAyOTgsNTY1LjcyNTk1MjF6Ii8+PC9nPjx0ZXh0IGZvbnQtZmFtaWx5PSInSGVsdmV0aWNhIE5ldWUnLCBIZWx2ZXRpY2EsIEFyaWFsLVVuaWNvZGUsIEFyaWFsLCBTYW5zLXNlcmlmIiBmb250LXdlaWdodD0iYm9sZCIgZm9udC1zaXplPSI1cHgiIGZpbGw9IiMwMDAwMDAiIHk9IjEwMTUiIHg9IjAiPkNyZWF0ZWQgYnkgQnJhZDwvdGV4dD48dGV4dCBmb250LWZhbWlseT0iJ0hlbHZldGljYSBOZXVlJywgSGVsdmV0aWNhLCBBcmlhbC1Vbmljb2RlLCBBcmlhbCwgU2Fucy1zZXJpZiIgZm9udC13ZWlnaHQ9ImJvbGQiIGZvbnQtc2l6ZT0iNXB4IiBmaWxsPSIjMDAwMDAwIiB5PSIxMDIwIiB4PSIwIj5mcm9tIHRoZSBOb3VuIFByb2plY3Q8L3RleHQ+PC9zdmc+;align=left;labelPosition=right;" parent="1" vertex="1">
          <mxGeometry x="438.00000000000006" y="-860.9" width="59.84" height="74.8" as="geometry" />
        </mxCell>
        <mxCell id="MHl1cd-Qkk1gGBz24KGn-105" value="" style="endArrow=classic;html=1;rounded=1;fontSize=12;startSize=8;endSize=8;curved=0;" parent="1" edge="1">
          <mxGeometry width="50" height="50" relative="1" as="geometry">
            <mxPoint x="126.48000000000002" y="-865.72" as="sourcePoint" />
            <mxPoint x="240" y="-705" as="targetPoint" />
            <Array as="points">
              <mxPoint x="126" y="-771" />
              <mxPoint x="240" y="-771" />
            </Array>
          </mxGeometry>
        </mxCell>
        <mxCell id="MHl1cd-Qkk1gGBz24KGn-107" value="mescolare &#xa;rendere uniforme" style="shape=image;verticalLabelPosition=middle;labelBackgroundColor=default;verticalAlign=middle;aspect=fixed;imageAspect=0;image=data:image/svg+xml,PHN2ZyB4bWxucz0iaHR0cDovL3d3dy53My5vcmcvMjAwMC9zdmciIHZpZXdCb3g9Ii01LjAgLTEwLjAgMTEwLjAgMTM1LjAiIHZlcnNpb249IjEuMSI+JiN4YTsgPHBhdGggZD0ibTYyLjUgMjcuMTk5YzAtOS41LTUuNjAxNi0xNy4xOTktMTIuNS0xNy4xOTlzLTEyLjUgNy42OTkyLTEyLjUgMTcuMTk5YzAgNy42OTkyIDQuNSAxMy44MDEgOS4xOTkyIDE2LjEwMmwtMi44MDA4IDQwLjM5OGMwIDEuNjAxNiAwLjYwMTU2IDMuMTk5MiAxLjY5OTIgNC4zOTg0IDEuMTk5MiAxLjE5OTIgMi42OTkyIDEuODAwOCA0LjMwMDggMS44MDA4IDEuNjAxNiAwIDMuMTk5Mi0wLjYwMTU2IDQuMzAwOC0xLjgwMDggMS4xOTkyLTEuMTk5MiAxLjgwMDgtMi42OTkyIDEuNjk5Mi00LjM5ODRsLTIuODAwOC00MC4zOThjNC45MDIzLTIuMzAwOCA5LjQwMjMtOC40MDIzIDkuNDAyMy0xNi4xMDJ6bS0xMC42MDIgMTQuNjAyYy0wLjEwMTU2IDAtMC4xMDE1NiAwLjEwMTU2LTAuMTk5MjIgMC4xMDE1NmwtMC4xMDE1NiAwLjEwMTU2cy0wLjEwMTU2IDAuMTAxNTYtMC4xMDE1NiAwLjE5OTIyYzAgMC4xMDE1Ni0wLjEwMTU2IDAuMTAxNTYtMC4xMDE1NiAwLjE5OTIydjAuMTk5MjIgMC4xOTkyMmwyLjgwMDggNDFjMCAxLjEwMTYtMC4zOTg0NCAyLjEwMTYtMS4xOTkyIDIuODk4NC0wLjg5NDUzIDAuOTAyMzQtMS44OTQ1IDEuMzAwOC0yLjk5NjEgMS4zMDA4cy0yLjEwMTYtMC4zOTg0NC0yLjg5ODQtMS4xOTkyYy0wLjgwMDc4LTAuODAwNzgtMS4xOTkyLTEuODAwOC0xLjE5OTItMi44OTg0bDIuODAwOC00MS4xMDJ2LTAuMTk5MjItMC4xOTkyMmMwLTAuMTAxNTYtMC4xMDE1Ni0wLjEwMTU2LTAuMTAxNTYtMC4xOTkyMiAwLTAuMTAxNTYtMC4xMDE1Ni0wLjEwMTU2LTAuMTAxNTYtMC4xOTkyMmwtMC4xMDE1Ni0wLjEwMTU2Yy0wLjEwMTU2IDAtMC4xMDE1Ni0wLjEwMTU2LTAuMTk5MjItMC4xMDE1Ni00LjE5OTItMS44MDA4LTguNjk5Mi03LjUtOC42OTkyLTE0LjYwMiAwLTguMzk4NCA0LjY5OTItMTUuMTk5IDEwLjUtMTUuMTk5czEwLjUgNi44MDA4IDEwLjUgMTUuMTk5YzAgNy4xMDE2LTQuMzk4NCAxMi44MDEtOC42MDE2IDE0LjYwMnoiLz4mI3hhOyA8cGF0aCBkPSJtNDcuMTAyIDgzLjg5OGMwIDEuNjAxNiAxLjMwMDggMi44OTg0IDIuODk4NCAyLjg5ODQgMS42MDE2IDAgMi44OTg0LTEuMzAwOCAyLjg5ODQtMi44OTg0IDAtMS42MDE2LTEuMzAwOC0yLjg5ODQtMi44OTg0LTIuODk4NC0xLjYwMTYgMC0yLjg5ODQgMS4zMDA4LTIuODk4NCAyLjg5ODR6bTMuNzk2OSAwYzAgMC41LTAuMzk4NDQgMC44OTg0NC0wLjg5ODQ0IDAuODk4NDRzLTAuODk4NDQtMC4zOTg0NC0wLjg5ODQ0LTAuODk4NDQgMC4zOTg0NC0wLjg5ODQ0IDAuODk4NDQtMC44OTg0NCAwLjg5ODQ0IDAuMzk4NDQgMC44OTg0NCAwLjg5ODQ0eiIvPiYjeGE7IDxwYXRoIGQ9Im00NS4zMDEgMjIuNjAyYzAuMTk5MjItMC41IDAtMS4xMDE2LTAuNS0xLjMwMDhzLTEuMTAxNiAwLTEuMzAwOCAwLjVjLTEuODk4NCA0LjY5OTItMS4zOTg0IDkuNjk5MiAxLjMwMDggMTIuNSAwLjE5OTIyIDAuMTk5MjIgMC41IDAuMzAwNzggMC42OTkyMiAwLjMwMDc4IDAuMzAwNzggMCAwLjUtMC4xMDE1NiAwLjY5OTIyLTAuMzAwNzggMC4zOTg0NC0wLjM5ODQ0IDAuMzk4NDQtMSAwLTEuMzk4NC0yLjA5NzctMi4xMDE2LTIuNS02LjQwMjMtMC44OTg0NC0xMC4zMDF6Ii8+JiN4YTs8dGV4dCBmaWxsPSIjMDAwMDAwIiBmb250LWZhbWlseT0iQXJiZWl0IFJlZ3VsYXIsIEhlbHZldGljYSwgQXJpYWwtVW5pY29kZSwgQXJpYWwsIFNhbnMtc2VyaWYiIGZvbnQtd2VpZ2h0PSJib2xkIiBmb250LXNpemU9IjUuMCIgeT0iMTE3LjUiIHg9IjAuMCI+Q3JlYXRlZCBieSBSYWhtYWQgcm9tYWRvbmk8L3RleHQ+PHRleHQgZmlsbD0iIzAwMDAwMCIgZm9udC1mYW1pbHk9IkFyYmVpdCBSZWd1bGFyLCBIZWx2ZXRpY2EsIEFyaWFsLVVuaWNvZGUsIEFyaWFsLCBTYW5zLXNlcmlmIiBmb250LXdlaWdodD0iYm9sZCIgZm9udC1zaXplPSI1LjAiIHk9IjEyMi41IiB4PSIwLjAiPmZyb20gTm91biBQcm9qZWN0PC90ZXh0Pjwvc3ZnPg==;clipPath=inset(13.67% 29.51% 24.33% 29.51%);align=right;labelPosition=left;" parent="1" vertex="1">
          <mxGeometry x="485.9100000000001" y="-639" width="27.52" height="51.18" as="geometry" />
        </mxCell>
        <mxCell id="MHl1cd-Qkk1gGBz24KGn-132" value="" style="endArrow=classic;html=1;rounded=1;fontSize=12;startSize=8;endSize=8;curved=0;" parent="1" edge="1">
          <mxGeometry width="50" height="50" relative="1" as="geometry">
            <mxPoint x="255" y="-642" as="sourcePoint" />
            <mxPoint x="363" y="-447" as="targetPoint" />
            <Array as="points">
              <mxPoint x="255" y="-495" />
              <mxPoint x="363" y="-495" />
            </Array>
          </mxGeometry>
        </mxCell>
        <mxCell id="MHl1cd-Qkk1gGBz24KGn-146" value="forno statico&#xa;180C - 30 minuti" style="shape=image;verticalLabelPosition=bottom;labelBackgroundColor=default;verticalAlign=top;aspect=fixed;imageAspect=0;image=data:image/svg+xml,PHN2ZyB4bWxucz0iaHR0cDovL3d3dy53My5vcmcvMjAwMC9zdmciIHZpZXdCb3g9Ii01LjAgLTEwLjAgMTEwLjAgMTM1LjAiIHZlcnNpb249IjEuMSI+JiN4YTsgPHBhdGggZD0ibTkxLjkyMiAxMi41aC04My44NDRjLTIuNjI4OSAwLTQuNzYxNyAyLjE0MDYtNC43NjE3IDQuNzYxN3Y2MS40MjJjMCAyLjYyODkgMi4xNDA2IDQuNzYxNyA0Ljc2MTcgNC43NjE3aDAuODcxMDl2MS43NjE3YzAgMS4yNjE3IDEuMDMxMiAyLjI4OTEgMi4yODkxIDIuMjg5MWg2LjQyOTdjMS4yNjE3IDAgMi4yODkxLTEuMDMxMiAyLjI4OTEtMi4yODkxdi0xLjc2MTdoNjAuMTA5djEuNzYxN2MwIDEuMjYxNyAxLjAzMTIgMi4yODkxIDIuMjg5MSAyLjI4OTFoNi40Mjk3YzEuMjYxNyAwIDIuMjg5MS0xLjAzMTIgMi4yODkxLTIuMjg5MXYtMS43NjE3aDAuODcxMDljMi42Mjg5IDAgNC43NjE3LTIuMTQwNiA0Ljc2MTctNC43NjE3bDAuMDAzOTA3LTYxLjQxNGMtMC4wMTk1MzItMi42Mjg5LTIuMTYwMi00Ljc2OTUtNC43ODkxLTQuNzY5NXptLTgzLjg0NCAxLjkxMDJoODMuODUyYzEuNTc4MSAwIDIuODU5NCAxLjI4MTIgMi44NTk0IDIuODU5NHYxMC40OGgtODkuNTd2LTEwLjQ4YzAtMS41NzgxIDEuMjgxMi0yLjg1OTQgMi44NTk0LTIuODU5NHptOS45NjA5IDcwLjgwMWMwIDAuMjEwOTQtMC4xNzE4NyAwLjM3ODkxLTAuMzc4OTEgMC4zNzg5MWgtNi40Mjk3Yy0wLjIxMDk0IDAtMC4zNzg5MS0wLjE3MTg4LTAuMzc4OTEtMC4zNzg5MXYtMS43NjE3aDcuMTkxNHptNzEuMTA5IDBjMCAwLjIxMDk0LTAuMTcxODggMC4zNzg5MS0wLjM3ODkxIDAuMzc4OTFoLTYuNDI5N2MtMC4yMTA5NCAwLTAuMzc4OTEtMC4xNzE4OC0wLjM3ODkxLTAuMzc4OTF2LTEuNzYxN2g3LjE5MTR6bTIuNzczNC0zLjY2MDJoLTgzLjg0NGMtMS41NzgxIDAtMi44NTk0LTEuMjgxMi0yLjg1OTQtMi44NTk0di00OS4wNDNoODkuNTU5djQ5LjAzOWMwLjAwMzkwNiAxLjU4Mi0xLjI3NzMgMi44NjMzLTIuODU1NSAyLjg2MzN6bS01Ny4yNjItNDMuODc5aDMwLjY3MmMxLjYwOTQgMCAyLjkyMTktMS4zMDg2IDIuOTIxOS0yLjkyMTkgMC0xLjYwOTQtMS4zMDg2LTIuOTIxOS0yLjkyMTktMi45MjE5aC0zMC42NzJjLTEuNjA5NCAwLTIuOTIxOSAxLjMwODYtMi45MjE5IDIuOTIxOSAwLjAxMTcxOSAxLjYwOTQgMS4zMTI1IDIuOTIxOSAyLjkyMTkgMi45MjE5em0wLTMuOTQxNGgzMC42NzJjMC41NTg1OSAwIDEuMDExNyAwLjQ0OTIyIDEuMDExNyAxLjAxMTcgMCAwLjU1ODU5LTAuNDQ5MjIgMS4wMTE3LTEuMDExNyAxLjAxMTdsLTMwLjY3Mi0wLjAwMzkwNmMtMC41NTg1OSAwLTEuMDExNy0wLjQ0OTIyLTEuMDExNy0xLjAxMTcgMC0wLjU0Njg4IDAuNDYwOTQtMS4wMDc4IDEuMDExNy0xLjAwNzh6bTI0Ljg3MS04Ljg1MTZjMi4xMDE2IDAgMy44MDA4LTEuNjk5MiAzLjgwMDgtMy44MDA4cy0xLjY5OTItMy44MDA4LTMuODAwOC0zLjgwMDgtMy44MDA4IDEuNjk5Mi0zLjgwMDggMy44MDA4YzAgMi4wOTM4IDEuNjk5MiAzLjgwMDggMy44MDA4IDMuODAwOHptMC01LjY5OTJjMS4wMzkxIDAgMS44OTA2IDAuODUxNTYgMS44OTA2IDEuODkwNiAwIDEuMDM5MS0wLjg1MTU2IDEuODkwNi0xLjg5MDYgMS44OTA2cy0xLjg5MDYtMC44NTE1Ni0xLjg5MDYtMS44OTA2Yy0wLjAxMTcxOS0xLjAzOTEgMC44Mzk4NC0xLjg5MDYgMS44OTA2LTEuODkwNnptMTAuOTU3IDUuNjk5MmMyLjEwMTYgMCAzLjgwMDgtMS42OTkyIDMuODAwOC0zLjgwMDhzLTEuNjk5Mi0zLjgwMDgtMy44MDA4LTMuODAwOGMtMi4xMDE2IDAtMy44MDA4IDEuNjk5Mi0zLjgwMDggMy44MDA4IDAuMDAzOTA2IDIuMDkzOCAxLjcwMzEgMy44MDA4IDMuODAwOCAzLjgwMDh6bTAtNS42OTkyYzEuMDM5MSAwIDEuODkwNiAwLjg1MTU2IDEuODkwNiAxLjg5MDYgMCAxLjAzOTEtMC44NTE1NiAxLjg5MDYtMS44OTA2IDEuODkwNi0xLjAzOTEgMC0xLjg5MDYtMC44NTE1Ni0xLjg5MDYtMS44OTA2LTAuMDA3ODEyLTEuMDM5MSAwLjg0Mzc1LTEuODkwNiAxLjg5MDYtMS44OTA2em0xMC45NjEgNS42OTkyYzIuMTAxNiAwIDMuODAwOC0xLjY5OTIgMy44MDA4LTMuODAwOHMtMS42OTkyLTMuODAwOC0zLjgwMDgtMy44MDA4Yy0yLjEwMTYgMC0zLjgwMDggMS42OTkyLTMuODAwOCAzLjgwMDggMCAyLjA5MzggMS43MDMxIDMuODAwOCAzLjgwMDggMy44MDA4em0wLTUuNjk5MmMxLjAzOTEgMCAxLjg5MDYgMC44NTE1NiAxLjg5MDYgMS44OTA2IDAgMS4wMzkxLTAuODUxNTYgMS44OTA2LTEuODkwNiAxLjg5MDYtMS4wMzkxIDAtMS44OTA2LTAuODUxNTYtMS44OTA2LTEuODkwNiAwLTEuMDM5MSAwLjg1MTU2LTEuODkwNiAxLjg5MDYtMS44OTA2em0tNjQuMzAxIDYuMDgyaDExLjQyMmMxLjMyMDMgMCAyLjM5ODQtMS4wNzgxIDIuMzk4NC0yLjM5ODR2LTMuNTYyNWMwLTEuMzIwMy0xLjA3ODEtMi4zOTg0LTIuMzk4NC0yLjM5ODRsLTExLjQyMi0wLjAwMzkwNmMtMS4zMjAzIDAtMi4zOTg0IDEuMDc4MS0yLjM5ODQgMi4zOTg0djMuNTU4NmMwIDEuMzI0MiAxLjA3ODEgMi40MDYyIDIuMzk4NCAyLjQwNjJ6bS0wLjQ4ODI4LTUuOTYwOWMwLTAuMjY5NTMgMC4yMTg3NS0wLjUgMC41LTAuNWgxMS40MjJjMC4yNjk1MyAwIDAuNSAwLjIxODc1IDAuNSAwLjV2My41NTg2YzAgMC4yNjk1My0wLjIxODc1IDAuNS0wLjUgMC41aC0xMS40MzRjLTAuMjY5NTMgMC0wLjUtMC4yMTg3NS0wLjUtMC41di0zLjU1ODZ6bTQ0LjQ4OCAzMi42MjljMS4zNzg5IDIuMDExNyAxLjM3ODkgNC40MTAyIDAgNi40MTAyLTAuMTc5NjkgMC4yNjk1My0wLjQ4MDQ3IDAuNDEwMTYtMC43ODkwNiAwLjQxMDE2LTAuMTkxNDEgMC0wLjM3MTA5LTAuMDUwNzgxLTAuNTM5MDYtMC4xNzE4OC0wLjQyOTY5LTAuMzAwNzgtMC41MzkwNi0wLjg5MDYyLTAuMjM4MjgtMS4zMjAzIDAuOTQxNDEtMS4zNzExIDAuOTQxNDEtMi44Nzg5IDAtNC4yNS0xLjQyOTctMi4wNzgxLTEuNDQ5Mi00LjQ0MTQtMC4wMzkwNjItNi40ODA1IDAuMzAwNzgtMC40Mjk2OSAwLjg5MDYyLTAuNTM5MDYgMS4zMjgxLTAuMjM4MjggMC40Mjk2OSAwLjMwMDc4IDAuNTM5MDYgMC44OTA2MyAwLjIzODI4IDEuMzI4MS0wLjk2MDk0IDEuMzk0NS0wLjk0OTIyIDIuODgyOCAwLjAzOTA2MyA0LjMxMjV6bS0xMC4zNCAwYzEuMzc4OSAyLjAxMTcgMS4zNzg5IDQuNDEwMiAwIDYuNDEwMi0wLjE3OTY5IDAuMjY5NTMtMC40ODA0NyAwLjQxMDE2LTAuNzg5MDYgMC40MTAxNi0wLjE5MTQxIDAtMC4zNzEwOS0wLjA1MDc4MS0wLjUzOTA2LTAuMTcxODgtMC40Mjk2OS0wLjMwMDc4LTAuNTM5MDYtMC44OTA2Mi0wLjIzODI4LTEuMzIwMyAwLjk0MTQxLTEuMzcxMSAwLjk0MTQxLTIuODc4OSAwLTQuMjUtMS40Mjk3LTIuMDc4MS0xLjQ0OTItNC40NDE0LTAuMDM5MDYzLTYuNDgwNSAwLjMwMDc4LTAuNDI5NjkgMC44OTA2Mi0wLjUzOTA2IDEuMzI4MS0wLjIzODI4IDAuNDI5NjkgMC4zMDA3OCAwLjUzOTA2IDAuODkwNjMgMC4yMzgyOCAxLjMyODEtMC45NjA5NCAxLjM5NDUtMC45NDkyMiAyLjg4MjggMC4wMzkwNjMgNC4zMTI1em0tMTAuMzQgMGMxLjM3ODkgMi4wMTE3IDEuMzc4OSA0LjQxMDIgMCA2LjQxMDItMC4xNzk2OSAwLjI2OTUzLTAuNDgwNDcgMC40MTAxNi0wLjc4OTA2IDAuNDEwMTYtMC4xOTE0MSAwLTAuMzcxMDktMC4wNTA3ODEtMC41MzkwNi0wLjE3MTg4LTAuNDI5NjktMC4zMDA3OC0wLjUzOTA2LTAuODkwNjItMC4yMzgyOC0xLjMyMDMgMC45NDE0MS0xLjM3MTEgMC45NDE0MS0yLjg3ODkgMC00LjI1LTEuNDI5Ny0yLjA3ODEtMS40NDkyLTQuNDQxNC0wLjAzOTA2My02LjQ4MDUgMC4zMDA3OC0wLjQyOTY5IDAuODkwNjItMC41MzkwNiAxLjMyODEtMC4yMzgyOCAwLjQyOTY5IDAuMzAwNzggMC41MzkwNiAwLjg5MDYzIDAuMjM4MjggMS4zMjgxLTAuOTYwOTQgMS4zOTQ1LTAuOTQ5MjIgMi44ODI4IDAuMDM5MDYyIDQuMzEyNXptNDEuOTIyLTEyLjA5aC02NC43ODFjLTEuNTc4MSAwLTIuODU5NCAxLjI4MTItMi44NTk0IDIuODU5NHYzMy44OTFjMCAxLjU3ODEgMS4yODEyIDIuODU5NCAyLjg1OTQgMi44NTk0aDY0Ljc4MWMxLjU3ODEgMCAyLjg1OTQtMS4yODEyIDIuODU5NC0yLjg1OTR2LTMzLjg5MWMwLTEuNTcwMy0xLjI4MTItMi44NTk0LTIuODU5NC0yLjg1OTR6bS01Ny4xOCAzNi44NzljMC0wLjQ0OTIyIDAuMzcxMDktMC44MjAzMSAwLjgyMDMxLTAuODIwMzFoNDcuOTQ5YzAuNDQ5MjIgMCAwLjgyMDMxIDAuMzcxMDkgMC44MjAzMSAwLjgyMDMxIDAgMC40NDE0MS0wLjM1OTM4IDAuODA4NTktMC44MDA3OCAwLjgyMDMxaC00OGMtMC40NDE0MS0wLjAwNzgxMi0wLjc4OTA2LTAuMzc4OTEtMC43ODkwNi0wLjgyMDMxem0xNi40MTgtMTEuNjI5YzAuMjgxMjUtMC4wMzEyNSAwLjU3MDMxLTAuMDUwNzgyIDAuODU5MzgtMC4wNTA3ODJoMC43MTg3NXYzLjM1OTRjMCAwLjQyOTY5LTAuMzUxNTYgMC43ODkwNi0wLjc4OTA2IDAuNzg5MDYtMC40NDE0MSAwLTAuNzg5MDYtMC4zNTE1Ni0wLjc4OTA2LTAuNzg5MDZ6bTAuNzgxMjUgNi4wMTE3YzEuNDgwNSAwIDIuNjkxNC0xLjIxMDkgMi42OTE0LTIuNjkxNHYtMy4zNTk0aDIuMTk5MnYzLjM1OTRjMCAxLjQ4MDUgMS4yMTA5IDIuNjkxNCAyLjY5MTQgMi42OTE0IDEuNDgwNSAwIDIuNjkxNC0xLjIxMDkgMi42OTE0LTIuNjkxNHYtMy4zNTk0aDIuMTk5MnYzLjM1OTRjMCAxLjQ4MDUgMS4yMTA5IDIuNjkxNCAyLjY5MTQgMi42OTE0czIuNjkxNC0xLjIxMDkgMi42OTE0LTIuNjkxNHYtMi44Nzg5YzMuMTcxOSAxLjE0MDYgNS40NDE0IDQuMTYwMiA1LjQ0MTQgNy43MTA5bC0wLjAwNzgxMiAwLjc1NzgxaC0zMS40MTh2LTAuNzYxNzJjMC0zLjU1MDggMi4yNjk1LTYuNTc4MSA1LjQ0MTQtNy43MTA5djIuODc4OWMtMC4wMDM5MDYgMS40ODQ0IDEuMjA3IDIuNjk1MyAyLjY4NzUgMi42OTUzem02LjgwMDgtNi4wNjI1aDEuNTcwM3YzLjM1OTRjMCAwLjQyOTY5LTAuMzUxNTYgMC43ODkwNi0wLjc4OTA2IDAuNzg5MDYtMC40Mjk2OSAwLTAuNzg5MDYtMC4zNTE1Ni0wLjc4OTA2LTAuNzg5MDZsLTAuMDAzOTA2LTMuMzU5NHptNy41ODk4IDBoMC43MTg3NWMwLjI4OTA2IDAgMC41NzAzMSAwLjAxOTUzMiAwLjg1OTM4IDAuMDUwNzgydjMuMzIwM2MwIDAuNDI5NjktMC4zNTE1NiAwLjc4OTA2LTAuNzg5MDYgMC43ODkwNi0wLjQ0MTQxIDAtMC43ODkwNi0wLjM1MTU2LTAuNzg5MDYtMC43ODkwNnptMjYuNTM5IDExLjU1MWMwIDAuNTMxMjUtMC40Mjk2OSAwLjk0OTIyLTAuOTQ5MjIgMC45NDkyMmgtNS44MjgxYzAuMDc4MTI1LTAuMjYxNzIgMC4xNDA2Mi0wLjUzMTI1IDAuMTQwNjItMC44MjAzMSAwLTEuNS0xLjIxODgtMi43MTg4LTIuNzE4OC0yLjcxODhoLTYuMzUxNnYtMC43NjE3MmMwLTUuNTcwMy00LjUzMTItMTAuMTA5LTEwLjEwOS0xMC4xMDloLTE1LjA0M2MtNS41NzAzIDAtMTAuMTA5IDQuNTMxMi0xMC4xMDkgMTAuMTA5djAuNzYxNzJoLTYuMzUxNmMtMS41IDAtMi43MTg4IDEuMjE4OC0yLjcxODggMi43MTg4IDAgMC4yODkwNiAwLjA1ODU5NCAwLjU1ODU5IDAuMTQwNjIgMC44MjAzMWgtNS44MjgxYy0wLjUzMTI1IDAtMC45NDkyMi0wLjQyOTY5LTAuOTQ5MjItMC45NDkyMmwtMC4wMDM5MDYtMzMuODkxYzAtMC41MzEyNSAwLjQyOTY5LTAuOTQ5MjIgMC45NDkyMi0wLjk0OTIyaDY0Ljc4MWMwLjUzMTI1IDAgMC45NDkyMiAwLjQyOTY5IDAuOTQ5MjIgMC45NDkyMnoiLz4mI3hhOzx0ZXh0IGZpbGw9IiMwMDAwMDAiIGZvbnQtZmFtaWx5PSJBcmJlaXQgUmVndWxhciwgSGVsdmV0aWNhLCBBcmlhbC1Vbmljb2RlLCBBcmlhbCwgU2Fucy1zZXJpZiIgZm9udC13ZWlnaHQ9ImJvbGQiIGZvbnQtc2l6ZT0iNS4wIiB5PSIxMTcuNSIgeD0iMC4wIj5DcmVhdGVkIGJ5IEhhbmJhaTwvdGV4dD48dGV4dCBmaWxsPSIjMDAwMDAwIiBmb250LWZhbWlseT0iQXJiZWl0IFJlZ3VsYXIsIEhlbHZldGljYSwgQXJpYWwtVW5pY29kZSwgQXJpYWwsIFNhbnMtc2VyaWYiIGZvbnQtd2VpZ2h0PSJib2xkIiBmb250LXNpemU9IjUuMCIgeT0iMTIyLjUiIHg9IjAuMCI+ZnJvbSBOb3VuIFByb2plY3Q8L3RleHQ+PC9zdmc+;clipPath=inset(13.67% 4.1% 25% 3.28%);fontSize=17;" parent="1" vertex="1">
          <mxGeometry x="337.63" y="-159" width="83.62" height="68.09" as="geometry" />
        </mxCell>
        <mxCell id="5F6mdfIocnfPG_2X_Afl-26" value="" style="group" parent="1" vertex="1" connectable="0">
          <mxGeometry x="353.8799999999999" y="-441.18000000000006" width="56.00999999999999" height="33.22999999999996" as="geometry" />
        </mxCell>
        <mxCell id="5F6mdfIocnfPG_2X_Afl-27" value="" style="group" parent="5F6mdfIocnfPG_2X_Afl-26" vertex="1" connectable="0">
          <mxGeometry width="56.00999999999999" height="33.22999999999999" as="geometry" />
        </mxCell>
        <mxCell id="5F6mdfIocnfPG_2X_Afl-28" value="" style="group;fillColor=none;container=0;fillStyle=dots;" parent="5F6mdfIocnfPG_2X_Afl-27" vertex="1" connectable="0">
          <mxGeometry width="56.01" height="33.23" as="geometry" />
        </mxCell>
        <mxCell id="5F6mdfIocnfPG_2X_Afl-29" value="" style="verticalLabelPosition=bottom;verticalAlign=top;html=1;shape=mxgraph.basic.arc;startAngle=0.5228132783035719;endAngle=0.931180165086578;fillStyle=auto;fillColor=#66FFB3;" parent="5F6mdfIocnfPG_2X_Afl-27" vertex="1">
          <mxGeometry y="10.029958878139894" width="23.170383608225663" height="23.16066798628343" as="geometry" />
        </mxCell>
        <mxCell id="5F6mdfIocnfPG_2X_Afl-30" value="" style="verticalLabelPosition=bottom;verticalAlign=top;html=1;shape=mxgraph.basic.arc;startAngle=0.7768001258780505;endAngle=0.08146438747349113;" parent="5F6mdfIocnfPG_2X_Afl-27" vertex="1">
          <mxGeometry x="6.389999999999986" y="1.8200000000000216" width="25.11" height="23.16" as="geometry" />
        </mxCell>
        <mxCell id="5F6mdfIocnfPG_2X_Afl-31" value="" style="verticalLabelPosition=bottom;verticalAlign=top;html=1;shape=mxgraph.basic.arc;startAngle=0.8805625920328525;endAngle=0.23557103081184777;fillColor=#97D077;" parent="5F6mdfIocnfPG_2X_Afl-27" vertex="1">
          <mxGeometry x="20.981709172592673" width="23.170383608225663" height="23.16066798628343" as="geometry" />
        </mxCell>
        <mxCell id="5F6mdfIocnfPG_2X_Afl-32" value="" style="verticalLabelPosition=bottom;verticalAlign=top;html=1;shape=mxgraph.basic.arc;startAngle=0.9911671385559326;endAngle=0.5054236362483322;" parent="5F6mdfIocnfPG_2X_Afl-27" vertex="1">
          <mxGeometry x="32.839616391774314" y="10.03019048481977" width="23.170383608225663" height="23.16066798628343" as="geometry" />
        </mxCell>
        <mxCell id="5F6mdfIocnfPG_2X_Afl-33" value="" style="endArrow=none;html=1;rounded=0;" parent="5F6mdfIocnfPG_2X_Afl-27" edge="1">
          <mxGeometry width="50" height="50" relative="1" as="geometry">
            <mxPoint x="9.863875299403048" y="33.150000000000034" as="sourcePoint" />
            <mxPoint x="44.156043039577014" y="33.150000000000034" as="targetPoint" />
          </mxGeometry>
        </mxCell>
        <mxCell id="5F6mdfIocnfPG_2X_Afl-34" value="" style="group" parent="5F6mdfIocnfPG_2X_Afl-26" vertex="1" connectable="0">
          <mxGeometry x="8.740000000000009" y="7.755000000000109" width="39.37500000000017" height="22.93199999999996" as="geometry" />
        </mxCell>
        <mxCell id="5F6mdfIocnfPG_2X_Afl-35" value="" style="ellipse;whiteSpace=wrap;html=1;fillStyle=auto;strokeColor=none;align=center;verticalAlign=middle;fontFamily=Helvetica;fontSize=12;fontColor=default;fillColor=#999999;" parent="5F6mdfIocnfPG_2X_Afl-34" vertex="1">
          <mxGeometry y="10.784999999999968" width="3.95" height="4.09" as="geometry" />
        </mxCell>
        <mxCell id="5F6mdfIocnfPG_2X_Afl-36" value="" style="ellipse;whiteSpace=wrap;html=1;fillStyle=auto;strokeColor=none;align=center;verticalAlign=middle;fontFamily=Helvetica;fontSize=12;fontColor=default;fillColor=#999999;" parent="5F6mdfIocnfPG_2X_Afl-34" vertex="1">
          <mxGeometry x="7.867000000000019" y="18.841999999999985" width="3.95" height="4.09" as="geometry" />
        </mxCell>
        <mxCell id="5F6mdfIocnfPG_2X_Afl-37" value="" style="ellipse;whiteSpace=wrap;html=1;fillStyle=auto;strokeColor=none;align=center;verticalAlign=middle;fontFamily=Helvetica;fontSize=12;fontColor=default;fillColor=#999999;" parent="5F6mdfIocnfPG_2X_Afl-34" vertex="1">
          <mxGeometry x="15.744000000000085" y="7.868999999999971" width="3.95" height="4.09" as="geometry" />
        </mxCell>
        <mxCell id="5F6mdfIocnfPG_2X_Afl-38" value="" style="ellipse;whiteSpace=wrap;html=1;fillStyle=auto;strokeColor=none;align=center;verticalAlign=middle;fontFamily=Helvetica;fontSize=12;fontColor=default;fillColor=#999999;" parent="5F6mdfIocnfPG_2X_Afl-34" vertex="1">
          <mxGeometry x="23.62100000000015" y="14.875999999999976" width="3.95" height="4.09" as="geometry" />
        </mxCell>
        <mxCell id="5F6mdfIocnfPG_2X_Afl-39" value="" style="ellipse;whiteSpace=wrap;html=1;fillStyle=auto;strokeColor=none;align=center;verticalAlign=middle;fontFamily=Helvetica;fontSize=12;fontColor=default;fillColor=#999999;" parent="5F6mdfIocnfPG_2X_Afl-34" vertex="1">
          <mxGeometry x="27.568000000000154" y="3.782999999999987" width="3.95" height="4.09" as="geometry" />
        </mxCell>
        <mxCell id="5F6mdfIocnfPG_2X_Afl-40" value="" style="ellipse;whiteSpace=wrap;html=1;fillStyle=auto;strokeColor=none;align=center;verticalAlign=middle;fontFamily=Helvetica;fontSize=12;fontColor=default;fillColor=#999999;" parent="5F6mdfIocnfPG_2X_Afl-34" vertex="1">
          <mxGeometry x="7.865000000000123" width="3.95" height="4.09" as="geometry" />
        </mxCell>
        <mxCell id="5F6mdfIocnfPG_2X_Afl-41" value="" style="ellipse;whiteSpace=wrap;html=1;fillStyle=auto;strokeColor=none;align=center;verticalAlign=middle;fontFamily=Helvetica;fontSize=12;fontColor=default;fillColor=#999999;" parent="5F6mdfIocnfPG_2X_Afl-34" vertex="1">
          <mxGeometry x="35.425000000000125" y="11.95999999999998" width="3.95" height="4.09" as="geometry" />
        </mxCell>
        <mxCell id="5F6mdfIocnfPG_2X_Afl-7" value="" style="group" parent="1" vertex="1" connectable="0">
          <mxGeometry x="334.1980000000002" y="-449.0519999999999" width="95" height="51" as="geometry" />
        </mxCell>
        <mxCell id="5F6mdfIocnfPG_2X_Afl-8" value="" style="endArrow=none;html=1;rounded=1;shadow=0;curved=0;strokeWidth=1.1811;" parent="5F6mdfIocnfPG_2X_Afl-7" edge="1">
          <mxGeometry width="50" height="50" relative="1" as="geometry">
            <mxPoint x="95" as="sourcePoint" />
            <mxPoint as="targetPoint" />
            <Array as="points">
              <mxPoint x="95" y="51" />
              <mxPoint x="48" y="51" />
              <mxPoint y="51" />
            </Array>
          </mxGeometry>
        </mxCell>
        <mxCell id="5F6mdfIocnfPG_2X_Afl-9" value="" style="endArrow=none;html=1;rounded=1;shadow=0;curved=0;strokeWidth=1.1811;" parent="5F6mdfIocnfPG_2X_Afl-7" edge="1">
          <mxGeometry width="50" height="50" relative="1" as="geometry">
            <mxPoint x="91" as="sourcePoint" />
            <mxPoint x="4" as="targetPoint" />
            <Array as="points">
              <mxPoint x="91" y="47" />
              <mxPoint x="4" y="47" />
            </Array>
          </mxGeometry>
        </mxCell>
        <mxCell id="5F6mdfIocnfPG_2X_Afl-50" value="mescolare&#xa;rendere uniforme" style="shape=image;verticalLabelPosition=middle;labelBackgroundColor=default;verticalAlign=middle;aspect=fixed;imageAspect=0;image=data:image/svg+xml,PHN2ZyB4bWxucz0iaHR0cDovL3d3dy53My5vcmcvMjAwMC9zdmciIHZpZXdCb3g9Ii01LjAgLTEwLjAgMTEwLjAgMTM1LjAiIHZlcnNpb249IjEuMSI+JiN4YTsgPHBhdGggZD0ibTYyLjUgMjcuMTk5YzAtOS41LTUuNjAxNi0xNy4xOTktMTIuNS0xNy4xOTlzLTEyLjUgNy42OTkyLTEyLjUgMTcuMTk5YzAgNy42OTkyIDQuNSAxMy44MDEgOS4xOTkyIDE2LjEwMmwtMi44MDA4IDQwLjM5OGMwIDEuNjAxNiAwLjYwMTU2IDMuMTk5MiAxLjY5OTIgNC4zOTg0IDEuMTk5MiAxLjE5OTIgMi42OTkyIDEuODAwOCA0LjMwMDggMS44MDA4IDEuNjAxNiAwIDMuMTk5Mi0wLjYwMTU2IDQuMzAwOC0xLjgwMDggMS4xOTkyLTEuMTk5MiAxLjgwMDgtMi42OTkyIDEuNjk5Mi00LjM5ODRsLTIuODAwOC00MC4zOThjNC45MDIzLTIuMzAwOCA5LjQwMjMtOC40MDIzIDkuNDAyMy0xNi4xMDJ6bS0xMC42MDIgMTQuNjAyYy0wLjEwMTU2IDAtMC4xMDE1NiAwLjEwMTU2LTAuMTk5MjIgMC4xMDE1NmwtMC4xMDE1NiAwLjEwMTU2cy0wLjEwMTU2IDAuMTAxNTYtMC4xMDE1NiAwLjE5OTIyYzAgMC4xMDE1Ni0wLjEwMTU2IDAuMTAxNTYtMC4xMDE1NiAwLjE5OTIydjAuMTk5MjIgMC4xOTkyMmwyLjgwMDggNDFjMCAxLjEwMTYtMC4zOTg0NCAyLjEwMTYtMS4xOTkyIDIuODk4NC0wLjg5NDUzIDAuOTAyMzQtMS44OTQ1IDEuMzAwOC0yLjk5NjEgMS4zMDA4cy0yLjEwMTYtMC4zOTg0NC0yLjg5ODQtMS4xOTkyYy0wLjgwMDc4LTAuODAwNzgtMS4xOTkyLTEuODAwOC0xLjE5OTItMi44OTg0bDIuODAwOC00MS4xMDJ2LTAuMTk5MjItMC4xOTkyMmMwLTAuMTAxNTYtMC4xMDE1Ni0wLjEwMTU2LTAuMTAxNTYtMC4xOTkyMiAwLTAuMTAxNTYtMC4xMDE1Ni0wLjEwMTU2LTAuMTAxNTYtMC4xOTkyMmwtMC4xMDE1Ni0wLjEwMTU2Yy0wLjEwMTU2IDAtMC4xMDE1Ni0wLjEwMTU2LTAuMTk5MjItMC4xMDE1Ni00LjE5OTItMS44MDA4LTguNjk5Mi03LjUtOC42OTkyLTE0LjYwMiAwLTguMzk4NCA0LjY5OTItMTUuMTk5IDEwLjUtMTUuMTk5czEwLjUgNi44MDA4IDEwLjUgMTUuMTk5YzAgNy4xMDE2LTQuMzk4NCAxMi44MDEtOC42MDE2IDE0LjYwMnoiLz4mI3hhOyA8cGF0aCBkPSJtNDcuMTAyIDgzLjg5OGMwIDEuNjAxNiAxLjMwMDggMi44OTg0IDIuODk4NCAyLjg5ODQgMS42MDE2IDAgMi44OTg0LTEuMzAwOCAyLjg5ODQtMi44OTg0IDAtMS42MDE2LTEuMzAwOC0yLjg5ODQtMi44OTg0LTIuODk4NC0xLjYwMTYgMC0yLjg5ODQgMS4zMDA4LTIuODk4NCAyLjg5ODR6bTMuNzk2OSAwYzAgMC41LTAuMzk4NDQgMC44OTg0NC0wLjg5ODQ0IDAuODk4NDRzLTAuODk4NDQtMC4zOTg0NC0wLjg5ODQ0LTAuODk4NDQgMC4zOTg0NC0wLjg5ODQ0IDAuODk4NDQtMC44OTg0NCAwLjg5ODQ0IDAuMzk4NDQgMC44OTg0NCAwLjg5ODQ0eiIvPiYjeGE7IDxwYXRoIGQ9Im00NS4zMDEgMjIuNjAyYzAuMTk5MjItMC41IDAtMS4xMDE2LTAuNS0xLjMwMDhzLTEuMTAxNiAwLTEuMzAwOCAwLjVjLTEuODk4NCA0LjY5OTItMS4zOTg0IDkuNjk5MiAxLjMwMDggMTIuNSAwLjE5OTIyIDAuMTk5MjIgMC41IDAuMzAwNzggMC42OTkyMiAwLjMwMDc4IDAuMzAwNzggMCAwLjUtMC4xMDE1NiAwLjY5OTIyLTAuMzAwNzggMC4zOTg0NC0wLjM5ODQ0IDAuMzk4NDQtMSAwLTEuMzk4NC0yLjA5NzctMi4xMDE2LTIuNS02LjQwMjMtMC44OTg0NC0xMC4zMDF6Ii8+JiN4YTs8dGV4dCBmaWxsPSIjMDAwMDAwIiBmb250LWZhbWlseT0iQXJiZWl0IFJlZ3VsYXIsIEhlbHZldGljYSwgQXJpYWwtVW5pY29kZSwgQXJpYWwsIFNhbnMtc2VyaWYiIGZvbnQtd2VpZ2h0PSJib2xkIiBmb250LXNpemU9IjUuMCIgeT0iMTE3LjUiIHg9IjAuMCI+Q3JlYXRlZCBieSBSYWhtYWQgcm9tYWRvbmk8L3RleHQ+PHRleHQgZmlsbD0iIzAwMDAwMCIgZm9udC1mYW1pbHk9IkFyYmVpdCBSZWd1bGFyLCBIZWx2ZXRpY2EsIEFyaWFsLVVuaWNvZGUsIEFyaWFsLCBTYW5zLXNlcmlmIiBmb250LXdlaWdodD0iYm9sZCIgZm9udC1zaXplPSI1LjAiIHk9IjEyMi41IiB4PSIwLjAiPmZyb20gTm91biBQcm9qZWN0PC90ZXh0Pjwvc3ZnPg==;clipPath=inset(13.67% 29.51% 24.33% 29.51%);align=left;labelPosition=right;" parent="1" vertex="1">
          <mxGeometry x="436.5540000000001" y="-452.9960000000001" width="27.52" height="51.18" as="geometry" />
        </mxCell>
        <mxCell id="B5AM4SCg36jv7hFeiET2-1" value="" style="endArrow=classic;html=1;rounded=1;fontSize=12;startSize=8;endSize=8;curved=0;" parent="1" edge="1">
          <mxGeometry width="50" height="50" relative="1" as="geometry">
            <mxPoint x="162.99999999999955" y="-972" as="sourcePoint" />
            <mxPoint x="131.99999999999955" y="-921" as="targetPoint" />
            <Array as="points">
              <mxPoint x="131.99999999999955" y="-972" />
            </Array>
          </mxGeometry>
        </mxCell>
        <mxCell id="B5AM4SCg36jv7hFeiET2-2" value="cioccolato&amp;nbsp;&lt;span style=&quot;background-color: transparent; color: light-dark(rgb(0, 0, 0), rgb(255, 255, 255));&quot;&gt;fondente&lt;/span&gt;&lt;div&gt;200gr&lt;/div&gt;" style="text;strokeColor=none;fillColor=none;html=1;align=left;verticalAlign=middle;whiteSpace=wrap;rounded=0;fontSize=16;" parent="1" vertex="1">
          <mxGeometry x="165" y="-983.93" width="192" height="30" as="geometry" />
        </mxCell>
        <mxCell id="B5AM4SCg36jv7hFeiET2-3" value="sciogliere&lt;div&gt;50C&lt;/div&gt;" style="text;strokeColor=none;fillColor=none;html=1;align=center;verticalAlign=middle;whiteSpace=wrap;rounded=0;fontSize=16;" parent="1" vertex="1">
          <mxGeometry x="177" y="-914.89" width="59.06" height="40.93" as="geometry" />
        </mxCell>
        <mxCell id="B5AM4SCg36jv7hFeiET2-4" value="raffreddare&lt;div&gt;5m&lt;/div&gt;" style="text;strokeColor=none;fillColor=none;html=1;align=left;verticalAlign=middle;whiteSpace=wrap;rounded=0;fontSize=16;" parent="1" vertex="1">
          <mxGeometry x="132.00400000000013" y="-838.4959999999999" width="98.43" height="30" as="geometry" />
        </mxCell>
        <mxCell id="MHl1cd-Qkk1gGBz24KGn-58" value="" style="group" parent="1" vertex="1" connectable="0">
          <mxGeometry x="342.0040000000002" y="-848.9959999999999" width="95" height="51" as="geometry" />
        </mxCell>
        <mxCell id="MHl1cd-Qkk1gGBz24KGn-59" value="" style="endArrow=none;html=1;rounded=1;shadow=0;curved=0;strokeWidth=1.1811;" parent="MHl1cd-Qkk1gGBz24KGn-58" edge="1">
          <mxGeometry width="50" height="50" relative="1" as="geometry">
            <mxPoint x="95" as="sourcePoint" />
            <mxPoint as="targetPoint" />
            <Array as="points">
              <mxPoint x="95" y="51" />
              <mxPoint x="48" y="51" />
              <mxPoint y="51" />
            </Array>
          </mxGeometry>
        </mxCell>
        <mxCell id="MHl1cd-Qkk1gGBz24KGn-60" value="" style="endArrow=none;html=1;rounded=1;shadow=0;curved=0;strokeWidth=1.1811;" parent="MHl1cd-Qkk1gGBz24KGn-58" edge="1">
          <mxGeometry width="50" height="50" relative="1" as="geometry">
            <mxPoint x="91" as="sourcePoint" />
            <mxPoint x="4" as="targetPoint" />
            <Array as="points">
              <mxPoint x="91" y="47" />
              <mxPoint x="4" y="47" />
            </Array>
          </mxGeometry>
        </mxCell>
        <mxCell id="B5AM4SCg36jv7hFeiET2-5" value="" style="ellipse;whiteSpace=wrap;html=1;rotation=90;fillColor=#FFFFFF;" parent="MHl1cd-Qkk1gGBz24KGn-58" vertex="1">
          <mxGeometry x="5.99599999999981" y="3.995999999999867" width="24" height="18" as="geometry" />
        </mxCell>
        <mxCell id="B5AM4SCg36jv7hFeiET2-6" value="" style="ellipse;whiteSpace=wrap;html=1;rotation=90;fillColor=#FFFFFF;" parent="MHl1cd-Qkk1gGBz24KGn-58" vertex="1">
          <mxGeometry x="25.99599999999981" y="3.995999999999867" width="24" height="18" as="geometry" />
        </mxCell>
        <mxCell id="B5AM4SCg36jv7hFeiET2-7" value="" style="ellipse;whiteSpace=wrap;html=1;rotation=90;fillColor=#FFFFFF;" parent="MHl1cd-Qkk1gGBz24KGn-58" vertex="1">
          <mxGeometry x="46.99599999999981" y="3.995999999999867" width="24" height="18" as="geometry" />
        </mxCell>
        <mxCell id="MHl1cd-Qkk1gGBz24KGn-66" value="" style="pointerEvents=1;verticalLabelPosition=bottom;shadow=0;dashed=1;align=center;html=1;verticalAlign=top;shape=mxgraph.electrical.waveforms.sine_wave;fillStyle=dots;strokeColor=default;fontFamily=Helvetica;fontSize=12;fontColor=default;fillColor=#FF0000;" parent="1" vertex="1">
          <mxGeometry x="408.93700000000024" y="-832.2529999999997" width="18.53" height="6.9" as="geometry" />
        </mxCell>
        <mxCell id="MHl1cd-Qkk1gGBz24KGn-68" value="" style="pointerEvents=1;verticalLabelPosition=bottom;shadow=0;dashed=1;align=center;html=1;verticalAlign=top;shape=mxgraph.electrical.waveforms.sine_wave;fillStyle=dots;strokeColor=default;fontFamily=Helvetica;fontSize=12;fontColor=default;fillColor=#FF0000;" parent="1" vertex="1">
          <mxGeometry x="349.82400000000024" y="-825.8359999999998" width="19.68" height="7.87" as="geometry" />
        </mxCell>
        <mxCell id="MHl1cd-Qkk1gGBz24KGn-69" value="" style="pointerEvents=1;verticalLabelPosition=bottom;shadow=0;dashed=1;align=center;html=1;verticalAlign=top;shape=mxgraph.electrical.waveforms.sine_wave;fillStyle=dots;strokeColor=default;fontFamily=Helvetica;fontSize=12;fontColor=default;fillColor=#FF0000;" parent="1" vertex="1">
          <mxGeometry x="389.1840000000002" y="-826.3159999999997" width="19.78" height="8.87" as="geometry" />
        </mxCell>
        <mxCell id="MHl1cd-Qkk1gGBz24KGn-70" value="" style="pointerEvents=1;verticalLabelPosition=bottom;shadow=0;dashed=1;align=center;html=1;verticalAlign=top;shape=mxgraph.electrical.waveforms.sine_wave;fillStyle=dots;strokeColor=default;fontFamily=Helvetica;fontSize=12;fontColor=default;fillColor=#FF0000;" parent="1" vertex="1">
          <mxGeometry x="369.50400000000025" y="-825.8359999999998" width="19.74" height="7.9" as="geometry" />
        </mxCell>
        <mxCell id="MHl1cd-Qkk1gGBz24KGn-71" value="" style="pointerEvents=1;verticalLabelPosition=bottom;shadow=0;dashed=1;align=center;html=1;verticalAlign=top;shape=mxgraph.electrical.waveforms.sine_wave;fillStyle=dots;strokeColor=default;fontFamily=Helvetica;fontSize=12;fontColor=default;fillColor=#FF0000;" parent="1" vertex="1">
          <mxGeometry x="408.87400000000025" y="-825.3159999999997" width="18.53" height="6.9" as="geometry" />
        </mxCell>
        <mxCell id="MHl1cd-Qkk1gGBz24KGn-73" value="" style="pointerEvents=1;verticalLabelPosition=bottom;shadow=0;dashed=1;align=center;html=1;verticalAlign=top;shape=mxgraph.electrical.waveforms.sine_wave;fillStyle=dots;strokeColor=default;fontFamily=Helvetica;fontSize=12;fontColor=default;fillColor=#FF0000;" parent="1" vertex="1">
          <mxGeometry x="349.76100000000025" y="-818.8989999999997" width="19.68" height="7.87" as="geometry" />
        </mxCell>
        <mxCell id="MHl1cd-Qkk1gGBz24KGn-74" value="" style="pointerEvents=1;verticalLabelPosition=bottom;shadow=0;dashed=1;align=center;html=1;verticalAlign=top;shape=mxgraph.electrical.waveforms.sine_wave;fillStyle=dots;strokeColor=default;fontFamily=Helvetica;fontSize=12;fontColor=default;fillColor=#FF0000;" parent="1" vertex="1">
          <mxGeometry x="389.1210000000002" y="-819.3789999999997" width="19.78" height="8.87" as="geometry" />
        </mxCell>
        <mxCell id="MHl1cd-Qkk1gGBz24KGn-75" value="" style="pointerEvents=1;verticalLabelPosition=bottom;shadow=0;dashed=1;align=center;html=1;verticalAlign=top;shape=mxgraph.electrical.waveforms.sine_wave;fillStyle=dots;strokeColor=default;fontFamily=Helvetica;fontSize=12;fontColor=default;fillColor=#FF0000;" parent="1" vertex="1">
          <mxGeometry x="369.44100000000026" y="-818.8989999999997" width="19.74" height="7.9" as="geometry" />
        </mxCell>
        <mxCell id="MHl1cd-Qkk1gGBz24KGn-76" value="" style="pointerEvents=1;verticalLabelPosition=bottom;shadow=0;dashed=1;align=center;html=1;verticalAlign=top;shape=mxgraph.electrical.waveforms.sine_wave;fillStyle=dots;strokeColor=default;fontFamily=Helvetica;fontSize=12;fontColor=default;fillColor=#FF0000;" parent="1" vertex="1">
          <mxGeometry x="408.81100000000026" y="-818.3789999999997" width="18.53" height="6.9" as="geometry" />
        </mxCell>
        <mxCell id="B5AM4SCg36jv7hFeiET2-8" value="" style="ellipse;whiteSpace=wrap;html=1;rotation=90;fillColor=#FFFFFF;" parent="1" vertex="1">
          <mxGeometry x="409.03" y="-844.82" width="24" height="18" as="geometry" />
        </mxCell>
        <mxCell id="B5AM4SCg36jv7hFeiET2-9" value="" style="endArrow=classic;html=1;rounded=1;fontSize=12;startSize=8;endSize=8;curved=0;" parent="1" edge="1">
          <mxGeometry width="50" height="50" relative="1" as="geometry">
            <mxPoint x="350.79999999999995" y="-906" as="sourcePoint" />
            <mxPoint x="381.79999999999995" y="-855" as="targetPoint" />
            <Array as="points">
              <mxPoint x="381.79999999999995" y="-906" />
            </Array>
          </mxGeometry>
        </mxCell>
        <mxCell id="B5AM4SCg36jv7hFeiET2-10" value="4 uova" style="text;strokeColor=none;fillColor=none;html=1;align=right;verticalAlign=middle;whiteSpace=wrap;rounded=0;fontSize=16;" parent="1" vertex="1">
          <mxGeometry x="290.99699999999984" y="-921.003" width="59.06" height="30" as="geometry" />
        </mxCell>
        <mxCell id="B5AM4SCg36jv7hFeiET2-11" value="" style="endArrow=classic;html=1;rounded=1;fontSize=12;startSize=8;endSize=8;curved=0;" parent="1" edge="1">
          <mxGeometry width="50" height="50" relative="1" as="geometry">
            <mxPoint x="423.99999999999955" y="-906" as="sourcePoint" />
            <mxPoint x="392.99999999999955" y="-855" as="targetPoint" />
            <Array as="points">
              <mxPoint x="392.99999999999955" y="-906" />
            </Array>
          </mxGeometry>
        </mxCell>
        <mxCell id="B5AM4SCg36jv7hFeiET2-12" value="zucchero&lt;div&gt;225gr&lt;/div&gt;" style="text;strokeColor=none;fillColor=none;html=1;align=left;verticalAlign=middle;whiteSpace=wrap;rounded=0;fontSize=16;" parent="1" vertex="1">
          <mxGeometry x="425.99699999999984" y="-917.933" width="59.06" height="30" as="geometry" />
        </mxCell>
        <mxCell id="B5AM4SCg36jv7hFeiET2-13" value="" style="endArrow=classic;html=1;rounded=1;fontSize=12;startSize=8;endSize=8;curved=0;" parent="1" edge="1">
          <mxGeometry width="50" height="50" relative="1" as="geometry">
            <mxPoint x="387" y="-791" as="sourcePoint" />
            <mxPoint x="274.54" y="-705.28" as="targetPoint" />
            <Array as="points">
              <mxPoint x="387" y="-773" />
              <mxPoint x="274.54" y="-771.28" />
            </Array>
          </mxGeometry>
        </mxCell>
        <mxCell id="B5AM4SCg36jv7hFeiET2-14" value="" style="endArrow=classic;html=1;rounded=1;fontSize=12;startSize=8;endSize=8;curved=0;" parent="1" edge="1">
          <mxGeometry width="50" height="50" relative="1" as="geometry">
            <mxPoint x="585" y="-576" as="sourcePoint" />
            <mxPoint x="393" y="-447" as="targetPoint" />
            <Array as="points">
              <mxPoint x="585" y="-531" />
              <mxPoint x="393" y="-528" />
            </Array>
          </mxGeometry>
        </mxCell>
        <mxCell id="MHl1cd-Qkk1gGBz24KGn-134" value="" style="rounded=1;whiteSpace=wrap;html=1;labelPosition=right;verticalLabelPosition=middle;align=left;verticalAlign=middle;fontSize=16;" parent="1" vertex="1">
          <mxGeometry x="327.43" y="-321" width="108.54" height="78.74" as="geometry" />
        </mxCell>
        <mxCell id="B5AM4SCg36jv7hFeiET2-15" value="" style="endArrow=classic;html=1;rounded=1;fontSize=12;startSize=8;endSize=8;curved=0;" parent="1" edge="1">
          <mxGeometry width="50" height="50" relative="1" as="geometry">
            <mxPoint x="384" y="-390" as="sourcePoint" />
            <mxPoint x="384" y="-324" as="targetPoint" />
            <Array as="points" />
          </mxGeometry>
        </mxCell>
        <mxCell id="B5AM4SCg36jv7hFeiET2-16" value="" style="group" parent="1" vertex="1" connectable="0">
          <mxGeometry x="345.0010000000002" y="-305.9989999999997" width="77.57999999999998" height="8.870000000000005" as="geometry" />
        </mxCell>
        <mxCell id="B5AM4SCg36jv7hFeiET2-17" value="" style="pointerEvents=1;verticalLabelPosition=bottom;shadow=0;dashed=0;align=center;html=1;verticalAlign=top;shape=mxgraph.electrical.waveforms.sine_wave;fillStyle=dots;strokeColor=default;fontFamily=Helvetica;fontSize=12;fontColor=default;fillColor=#FF0000;" parent="B5AM4SCg36jv7hFeiET2-16" vertex="1">
          <mxGeometry y="0.47999999999996135" width="19.68" height="7.87" as="geometry" />
        </mxCell>
        <mxCell id="B5AM4SCg36jv7hFeiET2-18" value="" style="pointerEvents=1;verticalLabelPosition=bottom;shadow=0;dashed=0;align=center;html=1;verticalAlign=top;shape=mxgraph.electrical.waveforms.sine_wave;fillStyle=dots;strokeColor=default;fontFamily=Helvetica;fontSize=12;fontColor=default;fillColor=#FF0000;" parent="B5AM4SCg36jv7hFeiET2-16" vertex="1">
          <mxGeometry x="39.359999999999985" width="19.78" height="8.87" as="geometry" />
        </mxCell>
        <mxCell id="B5AM4SCg36jv7hFeiET2-19" value="" style="pointerEvents=1;verticalLabelPosition=bottom;shadow=0;dashed=0;align=center;html=1;verticalAlign=top;shape=mxgraph.electrical.waveforms.sine_wave;fillStyle=dots;strokeColor=default;fontFamily=Helvetica;fontSize=12;fontColor=default;fillColor=#FF0000;" parent="B5AM4SCg36jv7hFeiET2-16" vertex="1">
          <mxGeometry x="19.679999999999993" y="0.47999999999996135" width="19.74" height="7.9" as="geometry" />
        </mxCell>
        <mxCell id="B5AM4SCg36jv7hFeiET2-20" value="" style="pointerEvents=1;verticalLabelPosition=bottom;shadow=0;dashed=0;align=center;html=1;verticalAlign=top;shape=mxgraph.electrical.waveforms.sine_wave;fillStyle=dots;strokeColor=default;fontFamily=Helvetica;fontSize=12;fontColor=default;fillColor=#FF0000;" parent="B5AM4SCg36jv7hFeiET2-16" vertex="1">
          <mxGeometry x="59.04999999999998" y="1" width="18.53" height="6.9" as="geometry" />
        </mxCell>
        <mxCell id="B5AM4SCg36jv7hFeiET2-21" value="" style="group" parent="1" vertex="1" connectable="0">
          <mxGeometry x="345.0010000000002" y="-292" width="77.57999999999998" height="8.870000000000005" as="geometry" />
        </mxCell>
        <mxCell id="B5AM4SCg36jv7hFeiET2-22" value="" style="pointerEvents=1;verticalLabelPosition=bottom;shadow=0;dashed=0;align=center;html=1;verticalAlign=top;shape=mxgraph.electrical.waveforms.sine_wave;fillStyle=dots;strokeColor=default;fontFamily=Helvetica;fontSize=12;fontColor=default;fillColor=#FF0000;" parent="B5AM4SCg36jv7hFeiET2-21" vertex="1">
          <mxGeometry y="0.47999999999996135" width="19.68" height="7.87" as="geometry" />
        </mxCell>
        <mxCell id="B5AM4SCg36jv7hFeiET2-23" value="" style="pointerEvents=1;verticalLabelPosition=bottom;shadow=0;dashed=0;align=center;html=1;verticalAlign=top;shape=mxgraph.electrical.waveforms.sine_wave;fillStyle=dots;strokeColor=default;fontFamily=Helvetica;fontSize=12;fontColor=default;fillColor=#FF0000;" parent="B5AM4SCg36jv7hFeiET2-21" vertex="1">
          <mxGeometry x="39.359999999999985" width="19.78" height="8.87" as="geometry" />
        </mxCell>
        <mxCell id="B5AM4SCg36jv7hFeiET2-24" value="" style="pointerEvents=1;verticalLabelPosition=bottom;shadow=0;dashed=0;align=center;html=1;verticalAlign=top;shape=mxgraph.electrical.waveforms.sine_wave;fillStyle=dots;strokeColor=default;fontFamily=Helvetica;fontSize=12;fontColor=default;fillColor=#FF0000;" parent="B5AM4SCg36jv7hFeiET2-21" vertex="1">
          <mxGeometry x="19.679999999999993" y="0.47999999999996135" width="19.74" height="7.9" as="geometry" />
        </mxCell>
        <mxCell id="B5AM4SCg36jv7hFeiET2-25" value="" style="pointerEvents=1;verticalLabelPosition=bottom;shadow=0;dashed=0;align=center;html=1;verticalAlign=top;shape=mxgraph.electrical.waveforms.sine_wave;fillStyle=dots;strokeColor=default;fontFamily=Helvetica;fontSize=12;fontColor=default;fillColor=#FF0000;" parent="B5AM4SCg36jv7hFeiET2-21" vertex="1">
          <mxGeometry x="59.04999999999998" y="1" width="18.53" height="6.9" as="geometry" />
        </mxCell>
        <mxCell id="B5AM4SCg36jv7hFeiET2-26" value="" style="group" parent="1" vertex="1" connectable="0">
          <mxGeometry x="345.0010000000002" y="-263.9989999999997" width="77.57999999999998" height="8.870000000000005" as="geometry" />
        </mxCell>
        <mxCell id="B5AM4SCg36jv7hFeiET2-27" value="" style="pointerEvents=1;verticalLabelPosition=bottom;shadow=0;dashed=0;align=center;html=1;verticalAlign=top;shape=mxgraph.electrical.waveforms.sine_wave;fillStyle=dots;strokeColor=default;fontFamily=Helvetica;fontSize=12;fontColor=default;fillColor=#FF0000;" parent="B5AM4SCg36jv7hFeiET2-26" vertex="1">
          <mxGeometry y="0.47999999999996135" width="19.68" height="7.87" as="geometry" />
        </mxCell>
        <mxCell id="B5AM4SCg36jv7hFeiET2-28" value="" style="pointerEvents=1;verticalLabelPosition=bottom;shadow=0;dashed=0;align=center;html=1;verticalAlign=top;shape=mxgraph.electrical.waveforms.sine_wave;fillStyle=dots;strokeColor=default;fontFamily=Helvetica;fontSize=12;fontColor=default;fillColor=#FF0000;" parent="B5AM4SCg36jv7hFeiET2-26" vertex="1">
          <mxGeometry x="39.359999999999985" width="19.78" height="8.87" as="geometry" />
        </mxCell>
        <mxCell id="B5AM4SCg36jv7hFeiET2-29" value="" style="pointerEvents=1;verticalLabelPosition=bottom;shadow=0;dashed=0;align=center;html=1;verticalAlign=top;shape=mxgraph.electrical.waveforms.sine_wave;fillStyle=dots;strokeColor=default;fontFamily=Helvetica;fontSize=12;fontColor=default;fillColor=#FF0000;" parent="B5AM4SCg36jv7hFeiET2-26" vertex="1">
          <mxGeometry x="19.679999999999993" y="0.47999999999996135" width="19.74" height="7.9" as="geometry" />
        </mxCell>
        <mxCell id="B5AM4SCg36jv7hFeiET2-30" value="" style="pointerEvents=1;verticalLabelPosition=bottom;shadow=0;dashed=0;align=center;html=1;verticalAlign=top;shape=mxgraph.electrical.waveforms.sine_wave;fillStyle=dots;strokeColor=default;fontFamily=Helvetica;fontSize=12;fontColor=default;fillColor=#FF0000;" parent="B5AM4SCg36jv7hFeiET2-26" vertex="1">
          <mxGeometry x="59.04999999999998" y="1" width="18.53" height="6.9" as="geometry" />
        </mxCell>
        <mxCell id="B5AM4SCg36jv7hFeiET2-31" value="" style="group" parent="1" vertex="1" connectable="0">
          <mxGeometry x="345.0010000000002" y="-278" width="77.57999999999998" height="8.870000000000005" as="geometry" />
        </mxCell>
        <mxCell id="B5AM4SCg36jv7hFeiET2-32" value="" style="pointerEvents=1;verticalLabelPosition=bottom;shadow=0;dashed=0;align=center;html=1;verticalAlign=top;shape=mxgraph.electrical.waveforms.sine_wave;fillStyle=dots;strokeColor=default;fontFamily=Helvetica;fontSize=12;fontColor=default;fillColor=#FF0000;" parent="B5AM4SCg36jv7hFeiET2-31" vertex="1">
          <mxGeometry y="0.47999999999996135" width="19.68" height="7.87" as="geometry" />
        </mxCell>
        <mxCell id="B5AM4SCg36jv7hFeiET2-33" value="" style="pointerEvents=1;verticalLabelPosition=bottom;shadow=0;dashed=0;align=center;html=1;verticalAlign=top;shape=mxgraph.electrical.waveforms.sine_wave;fillStyle=dots;strokeColor=default;fontFamily=Helvetica;fontSize=12;fontColor=default;fillColor=#FF0000;" parent="B5AM4SCg36jv7hFeiET2-31" vertex="1">
          <mxGeometry x="39.359999999999985" width="19.78" height="8.87" as="geometry" />
        </mxCell>
        <mxCell id="B5AM4SCg36jv7hFeiET2-34" value="" style="pointerEvents=1;verticalLabelPosition=bottom;shadow=0;dashed=0;align=center;html=1;verticalAlign=top;shape=mxgraph.electrical.waveforms.sine_wave;fillStyle=dots;strokeColor=default;fontFamily=Helvetica;fontSize=12;fontColor=default;fillColor=#FF0000;" parent="B5AM4SCg36jv7hFeiET2-31" vertex="1">
          <mxGeometry x="19.679999999999993" y="0.47999999999996135" width="19.74" height="7.9" as="geometry" />
        </mxCell>
        <mxCell id="B5AM4SCg36jv7hFeiET2-35" value="" style="pointerEvents=1;verticalLabelPosition=bottom;shadow=0;dashed=0;align=center;html=1;verticalAlign=top;shape=mxgraph.electrical.waveforms.sine_wave;fillStyle=dots;strokeColor=default;fontFamily=Helvetica;fontSize=12;fontColor=default;fillColor=#FF0000;" parent="B5AM4SCg36jv7hFeiET2-31" vertex="1">
          <mxGeometry x="59.04999999999998" y="1" width="18.53" height="6.9" as="geometry" />
        </mxCell>
        <mxCell id="B5AM4SCg36jv7hFeiET2-36" value="versare nella teglia&lt;div&gt;spargere uniformemente&lt;/div&gt;" style="text;strokeColor=none;fillColor=none;html=1;align=right;verticalAlign=middle;whiteSpace=wrap;rounded=0;fontSize=16;" parent="1" vertex="1">
          <mxGeometry x="89.06" y="-294" width="228" height="30" as="geometry" />
        </mxCell>
        <mxCell id="B5AM4SCg36jv7hFeiET2-37" value="" style="endArrow=classic;html=1;rounded=1;fontSize=12;startSize=8;endSize=8;curved=0;" parent="1" edge="1">
          <mxGeometry width="50" height="50" relative="1" as="geometry">
            <mxPoint x="381.43" y="-231" as="sourcePoint" />
            <mxPoint x="381.43" y="-165" as="targetPoint" />
            <Array as="points" />
          </mxGeometry>
        </mxCell>
        <mxCell id="B5AM4SCg36jv7hFeiET2-38" value="&lt;span style=&quot;&quot;&gt;Teglia 20x26cm&lt;/span&gt;&lt;div style=&quot;&quot;&gt;con carta forno&lt;/div&gt;" style="text;strokeColor=none;fillColor=none;html=1;align=left;verticalAlign=middle;whiteSpace=wrap;rounded=0;fontSize=16;" parent="1" vertex="1">
          <mxGeometry x="447" y="-294" width="141" height="30" as="geometry" />
        </mxCell>
      </root>
    </mxGraphModel>
  </diagram>
</mxfile>
